<?xml version="1.0" encoding="UTF-8" standalone="no"?>
<svg
   xmlns:dc="http://purl.org/dc/elements/1.1/"
   xmlns:cc="http://creativecommons.org/ns#"
   xmlns:rdf="http://www.w3.org/1999/02/22-rdf-syntax-ns#"
   xmlns:svg="http://www.w3.org/2000/svg"
   xmlns="http://www.w3.org/2000/svg"
   viewBox="0 0 1877.3492 877.50763"
   height="877.50763"
   width="1877.3492"
   xml:space="preserve"
   id="svg2"
   version="1.1"><metadata
     id="metadata8"><rdf:RDF><cc:Work
         rdf:about=""><dc:format>image/svg+xml</dc:format><dc:type
           rdf:resource="http://purl.org/dc/dcmitype/StillImage" /></cc:Work></rdf:RDF></metadata><defs
     id="defs6"><clipPath
       id="clipPath20"
       clipPathUnits="userSpaceOnUse"><path
         id="path18"
         d="M 36,290.8944 H 263.2012 V 434.5975 H 36 Z" /></clipPath><clipPath
       id="clipPath30"
       clipPathUnits="userSpaceOnUse"><path
         id="path28"
         d="m 191.9707,134.996 h 143.6055 v 455.5 H 191.9707 Z" /></clipPath><clipPath
       id="clipPath40"
       clipPathUnits="userSpaceOnUse"><path
         id="path38"
         d="M 261.047,283.7623 H 434.2179 V 441.7296 H 261.047 Z" /></clipPath><clipPath
       id="clipPath50"
       clipPathUnits="userSpaceOnUse"><path
         id="path48"
         d="M 290.6666,300.6099 H 517.8678 V 424.882 H 290.6666 Z" /></clipPath><clipPath
       id="clipPath60"
       clipPathUnits="userSpaceOnUse"><path
         id="path58"
         d="m 433.52,183.3176 h 836.1011 V 658.1307 H 433.52 Z" /></clipPath><clipPath
       id="clipPath74"
       clipPathUnits="userSpaceOnUse"><path
         id="path72"
         d="m 433.4614,0 h 974.5508 V 474.8717 H 433.4614 Z" /></clipPath></defs><g
     transform="matrix(1.3333333,0,0,-1.3333333,0,877.5076)"
     id="g10"><g
       id="g12" /><g
       id="g14"><g
         clip-path="url(#clipPath20)"
         id="g16"><path
           id="path22"
           style="fill:#eb4f55;fill-opacity:1;fill-rule:nonzero;stroke:none"
           d="m 145.3083,433.5975 h 8.5846 c 30.8447,0 49.3515,0 61.6894,-4.2728 19.6802,-7.163 35.183,-22.6659 42.346,-42.3461 2.8268,-7.7665 4.2729,-15.9677 4.2729,-24.2326 0,-8.265 -1.4461,-16.4662 -4.2729,-24.2327 -7.163,-19.6802 -22.6658,-35.183 -42.346,-42.346 -12.3379,-4.2729 -30.8447,-4.2729 -61.6894,-4.2729 h -8.5846 c -30.8447,0 -49.35152,0 -61.6894,4.2729 -19.68019,7.163 -35.18303,22.6658 -42.34603,42.346 C 38.44609,346.2798 37,354.481 37,362.746 c 0,8.2649 1.44609,16.4661 4.27287,24.2326 7.163,19.6802 22.66584,35.1831 42.34603,42.3461 12.33788,4.2728 30.8447,4.2728 61.6894,4.2728 z" /></g></g><g
       id="g24"><g
         clip-path="url(#clipPath30)"
         id="g26"><path
           id="path32"
           style="fill:#eb4f55;fill-opacity:1;fill-rule:nonzero;stroke:none"
           d="m 263.7734,589.496 c 8.2593,0 16.4548,-1.4451 24.216,-4.27 19.6666,-7.158 35.1588,-22.6502 42.3168,-42.3168 4.27,-12.3294 4.27,-30.8234 4.27,-61.6469 V 244.2296 c 0,-30.8234 0,-49.3175 -4.27,-61.6469 -7.158,-19.6666 -22.6502,-35.1587 -42.3168,-42.3168 -7.7612,-2.8248 -15.9567,-4.2699 -24.216,-4.2699 -8.2592,0 -16.4548,1.4451 -24.2159,4.2699 -19.6666,7.1581 -35.1588,22.6502 -42.3169,42.3168 -4.2699,12.3294 -4.2699,30.8235 -4.2699,61.6469 v 237.0327 c 0,30.8235 0,49.3175 4.2699,61.6469 7.1581,19.6666 22.6503,35.1588 42.3169,42.3168 7.7611,2.8249 15.9567,4.27 24.2159,4.27 z" /></g></g><g
       id="g34"><g
         clip-path="url(#clipPath40)"
         id="g36"><path
           id="path42"
           style="fill:#ffffff;fill-opacity:1;fill-rule:nonzero;stroke:none"
           d="m 347.6324,440.7296 c 12.7481,0 31.5187,-0.9968 39.3239,-4.4699 19.4226,-7.0692 34.7225,-22.3691 41.7917,-41.7917 3.1396,-7.4957 4.4699,-22.0107 4.4699,-31.722 0,-9.7113 -1.3303,-24.2264 -4.4699,-31.7221 -7.0692,-19.4225 -22.3691,-34.7224 -41.7917,-41.7917 -7.8052,-3.4731 -26.5758,-4.4699 -39.3239,-4.4699 -12.748,0 -31.5187,0.9968 -39.3238,4.4699 -19.4226,7.0693 -34.7225,22.3692 -41.7917,41.7917 -3.1397,7.4957 -4.4699,22.0108 -4.4699,31.7221 0,9.7113 1.3302,24.2263 4.4699,31.722 7.0692,19.4226 22.3691,34.7225 41.7917,41.7917 7.8051,3.4731 26.5758,4.4699 39.3238,4.4699 z" /></g></g><g
       id="g44"><g
         clip-path="url(#clipPath50)"
         id="g46"><path
           id="path52"
           style="fill:#ff9995;fill-opacity:1;fill-rule:nonzero;stroke:none"
           d="m 385.1231,423.882 h 38.2882 c 26.6151,0 42.5841,0 53.2302,-3.687 16.9815,-6.1807 30.3585,-19.5577 36.5393,-36.5393 2.4392,-6.7015 3.687,-13.7781 3.687,-20.9097 0,-7.1317 -1.2478,-14.2083 -3.687,-20.9098 C 507,324.8547 493.623,311.4777 476.6415,305.2969 c -10.6461,-3.687 -26.6151,-3.687 -53.2302,-3.687 h -38.2882 c -26.6151,0 -42.5842,0 -53.2303,3.687 -16.9815,6.1808 -30.3585,19.5578 -36.5393,36.5393 -2.4391,6.7015 -3.6869,13.7781 -3.6869,20.9098 0,7.1316 1.2478,14.2082 3.6869,20.9097 6.1808,16.9816 19.5578,30.3586 36.5393,36.5393 10.6461,3.687 26.6152,3.687 53.2303,3.687 z" /></g></g><g
       id="g54"><g
         clip-path="url(#clipPath60)"
         id="g56"><g
           transform="translate(525.0144,381.2497)"
           id="g62"><text
             id="text66"
             style="font-variant:normal;font-weight:normal;font-size:277.8019104px;font-family:InaiMathi;-inkscape-font-specification:InaiMathi;writing-mode:lr-tb;fill:#000000;fill-opacity:1;fill-rule:nonzero;stroke:none"
             transform="scale(1,-1)"><tspan
               id="tspan64"
               y="0"
               x="0 160.84731 284.46915 342.52975 503.37704">CLICK</tspan></text>
</g></g></g><g
       id="g68"><g
         clip-path="url(#clipPath74)"
         id="g70"><g
           transform="translate(525.0203,152.1941)"
           id="g76"><text
             id="text80"
             style="font-variant:normal;font-weight:bold;font-size:277.98959351px;font-family:InaiMathi;-inkscape-font-specification:InaiMathi-Bold;writing-mode:lr-tb;fill:#000000;fill-opacity:1;fill-rule:nonzero;stroke:none"
             transform="scale(1,-1)"><tspan
               id="tspan78"
               y="0"
               x="0 163.45789 342.48318 480.64401 653.83154">SALUD</tspan></text>
</g></g></g></g></svg>