<svg id="svg" version="1.1" xmlns="http://www.w3.org/2000/svg" xmlns:xlink="http://www.w3.org/1999/xlink" width="400" height="124.8" viewBox="0, 0, 400,124.8"><g id="svgg"><path id="path0" d="M51.893 3.337 C 48.882 3.655,44.532 6.351,42.750 9.006 C 42.476 9.415,42.203 9.787,42.144 9.833 C 42.085 9.879,41.915 10.179,41.766 10.500 C 41.616 10.821,41.386 11.271,41.254 11.500 C 39.815 14.001,39.787 14.296,39.678 28.286 C 39.589 39.545,39.564 40.341,39.286 40.619 C 39.006 40.899,38.264 40.918,26.952 40.941 L 14.917 40.965 13.167 41.412 C 12.204 41.658,11.304 41.958,11.167 42.080 C 11.029 42.201,10.654 42.422,10.333 42.570 C 7.628 43.823,5.092 46.407,3.777 49.250 C 3.522 49.800,3.163 50.550,2.978 50.917 C 2.161 52.534,2.159 59.070,2.975 60.581 C 3.172 60.946,3.333 61.321,3.334 61.414 C 3.334 61.628,4.230 63.333,4.716 64.046 C 5.879 65.751,7.349 67.313,8.226 67.776 C 8.487 67.914,9.125 68.320,9.642 68.680 C 10.160 69.039,10.704 69.333,10.853 69.333 C 11.001 69.333,11.316 69.486,11.554 69.673 C 12.748 70.613,14.369 70.732,27.283 70.828 C 36.702 70.898,39.195 70.961,39.367 71.133 C 39.538 71.305,39.603 73.807,39.680 83.217 C 39.792 97.070,39.847 97.587,41.466 100.167 C 41.667 100.487,41.832 100.809,41.833 100.882 C 41.834 101.166,43.147 102.870,44.212 103.971 C 45.595 105.400,49.349 107.558,50.795 107.755 C 51.228 107.814,52.000 107.974,52.509 108.110 C 54.690 108.696,59.172 107.942,61.167 106.654 C 61.304 106.566,61.679 106.361,62.000 106.201 C 63.470 105.464,64.760 104.377,66.190 102.667 C 66.853 101.874,67.243 101.239,68.442 99.000 C 68.564 98.771,68.665 98.485,68.666 98.366 C 68.666 98.246,68.835 97.796,69.042 97.366 C 69.411 96.595,69.755 80.538,69.430 79.243 C 69.361 78.968,68.907 78.653,67.751 78.079 C 66.880 77.647,66.167 77.227,66.167 77.147 C 66.167 77.066,66.069 77.000,65.949 77.000 C 65.769 77.000,64.206 75.882,62.922 74.833 C 62.361 74.375,59.755 71.724,59.417 71.267 C 59.233 71.019,58.894 70.577,58.662 70.283 C 57.960 69.395,57.398 68.469,56.923 67.417 C 56.675 66.867,56.401 66.304,56.316 66.167 C 56.230 66.029,56.043 65.654,55.901 65.333 C 55.758 65.012,55.497 64.445,55.321 64.072 C 55.144 63.700,55.000 63.254,55.000 63.083 C 55.000 62.912,54.831 62.204,54.625 61.511 C 54.129 59.844,54.066 51.807,54.538 50.500 C 54.687 50.087,54.887 49.320,54.982 48.793 C 55.077 48.267,55.298 47.555,55.472 47.210 C 55.773 46.617,56.148 45.818,56.745 44.500 C 57.010 43.914,57.071 43.806,57.826 42.581 C 58.781 41.032,61.299 38.109,62.566 37.080 C 63.015 36.715,63.484 36.317,63.608 36.196 C 64.139 35.678,66.527 34.182,67.852 33.538 C 68.641 33.154,69.354 32.745,69.435 32.628 C 69.807 32.097,69.441 14.807,69.040 13.967 C 68.835 13.537,68.667 13.071,68.667 12.932 C 68.667 12.508,66.676 9.125,65.822 8.097 C 64.937 7.031,62.374 5.011,61.897 5.003 C 61.795 5.001,61.533 4.861,61.314 4.691 C 61.096 4.521,60.617 4.288,60.250 4.172 C 59.883 4.057,59.419 3.860,59.219 3.734 C 58.456 3.256,54.631 3.049,51.893 3.337 " stroke="none" fill="#eb525a" fill-rule="evenodd" data-index="0"></path><path id="path1" d="M51.531 2.173 C 50.806 2.249,50.193 2.409,50.018 2.567 C 49.856 2.714,49.558 2.833,49.357 2.833 C 48.857 2.833,47.833 3.276,47.833 3.491 C 47.833 3.588,47.652 3.667,47.429 3.667 C 47.207 3.667,46.814 3.844,46.554 4.061 C 46.295 4.277,45.903 4.511,45.682 4.580 C 45.204 4.730,41.333 8.568,41.333 8.891 C 41.333 9.014,41.185 9.249,41.003 9.414 C 40.822 9.578,40.624 9.975,40.564 10.296 C 40.504 10.617,40.319 11.015,40.153 11.180 C 39.987 11.346,39.798 11.767,39.733 12.116 C 39.668 12.465,39.480 12.938,39.317 13.167 C 38.792 13.901,38.673 16.401,38.606 28.055 C 38.570 34.272,38.475 39.425,38.395 39.505 C 38.315 39.585,32.887 39.673,26.333 39.700 C 15.312 39.746,14.376 39.772,13.878 40.044 C 13.582 40.206,12.982 40.387,12.545 40.445 C 12.081 40.507,11.554 40.714,11.279 40.942 C 11.020 41.157,10.626 41.333,10.404 41.333 C 10.182 41.333,9.857 41.476,9.683 41.650 C 9.509 41.824,9.190 42.021,8.975 42.087 C 8.410 42.260,7.034 43.171,6.931 43.439 C 6.883 43.564,6.742 43.667,6.619 43.667 C 6.495 43.667,6.230 43.854,6.031 44.083 C 5.832 44.312,5.593 44.500,5.501 44.500 C 5.409 44.500,5.333 44.599,5.333 44.720 C 5.333 44.841,5.146 45.103,4.917 45.302 C 4.688 45.501,4.500 45.769,4.500 45.896 C 4.500 46.024,4.355 46.166,4.178 46.212 C 3.963 46.268,3.816 46.504,3.738 46.920 C 3.666 47.307,3.511 47.572,3.330 47.619 C 3.140 47.669,3.001 47.925,2.933 48.350 C 2.876 48.710,2.690 49.143,2.520 49.313 C 2.351 49.482,2.158 49.913,2.092 50.269 C 2.026 50.625,1.863 51.038,1.730 51.186 C 1.001 51.999,1.005 58.907,1.735 60.403 C 1.962 60.869,2.197 61.499,2.256 61.803 C 2.316 62.107,2.470 62.396,2.599 62.446 C 2.728 62.495,2.833 62.663,2.833 62.818 C 2.833 63.236,3.667 64.847,4.157 65.377 C 4.392 65.630,4.921 66.211,5.333 66.668 C 6.769 68.259,7.253 68.706,7.796 68.940 C 8.096 69.069,8.489 69.323,8.671 69.504 C 8.852 69.685,9.222 69.833,9.494 69.833 C 9.814 69.833,10.050 69.948,10.163 70.159 C 10.264 70.349,10.599 70.535,10.960 70.602 C 11.303 70.666,11.658 70.820,11.750 70.944 C 11.842 71.068,12.404 71.248,13.000 71.343 C 13.596 71.439,14.233 71.607,14.417 71.717 C 14.663 71.865,17.759 71.939,26.333 72.004 C 32.704 72.052,38.048 72.153,38.208 72.230 C 38.529 72.383,38.528 72.348,38.584 87.750 C 38.611 95.365,38.785 97.614,39.404 98.331 C 39.523 98.470,39.666 98.875,39.721 99.232 C 39.775 99.589,39.963 100.039,40.137 100.232 C 40.311 100.425,40.532 100.817,40.627 101.102 C 40.913 101.958,41.555 102.851,42.791 104.112 C 43.436 104.770,43.991 105.370,44.024 105.446 C 44.091 105.601,45.585 106.667,45.736 106.667 C 45.789 106.667,45.983 106.817,46.167 107.000 C 46.350 107.183,46.688 107.333,46.917 107.333 C 47.146 107.333,47.476 107.476,47.650 107.650 C 47.824 107.824,48.209 108.019,48.506 108.085 C 48.803 108.150,49.429 108.382,49.898 108.600 C 50.367 108.818,50.990 108.997,51.284 108.998 C 51.577 108.999,52.249 109.112,52.777 109.250 C 53.979 109.563,55.603 109.571,56.536 109.268 C 56.929 109.141,57.675 108.997,58.193 108.948 C 58.712 108.900,59.425 108.707,59.777 108.520 C 60.129 108.333,60.609 108.141,60.844 108.094 C 61.079 108.047,61.442 107.861,61.650 107.681 C 61.946 107.424,62.118 107.387,62.439 107.509 C 62.797 107.644,62.887 107.600,63.133 107.168 C 63.289 106.895,63.623 106.600,63.875 106.511 C 64.127 106.423,64.333 106.243,64.333 106.111 C 64.333 105.980,64.489 105.832,64.679 105.782 C 64.869 105.732,65.065 105.536,65.115 105.346 C 65.165 105.156,65.311 105.000,65.440 105.000 C 65.569 105.000,65.746 104.813,65.833 104.583 C 65.920 104.354,66.079 104.167,66.186 104.167 C 66.396 104.167,67.495 103.160,67.498 102.966 C 67.499 102.901,67.687 102.661,67.917 102.432 C 68.171 102.177,68.333 101.825,68.333 101.527 C 68.333 101.188,68.430 101.014,68.649 100.956 C 68.867 100.899,69.000 100.659,69.083 100.169 C 69.148 99.782,69.333 99.334,69.493 99.174 C 69.653 99.014,69.836 98.488,69.900 98.006 C 69.964 97.524,70.144 96.935,70.300 96.698 C 70.556 96.307,70.588 95.419,70.631 87.465 C 70.678 78.690,70.640 78.000,70.118 78.000 C 70.005 78.000,69.822 77.854,69.711 77.675 C 69.598 77.494,69.228 77.300,68.879 77.237 C 68.533 77.175,68.137 77.029,68.000 76.913 C 67.862 76.796,67.479 76.562,67.147 76.392 C 65.711 75.657,65.202 75.332,65.109 75.090 C 65.055 74.949,64.858 74.833,64.672 74.833 C 64.485 74.833,64.333 74.723,64.333 74.588 C 64.333 74.452,64.108 74.226,63.833 74.083 C 63.558 73.941,63.333 73.750,63.333 73.658 C 63.333 73.567,63.146 73.420,62.917 73.333 C 62.688 73.246,62.500 73.115,62.500 73.041 C 62.500 72.967,61.975 72.354,61.333 71.678 C 60.692 71.003,60.167 70.395,60.167 70.328 C 60.167 70.261,60.017 70.166,59.833 70.118 C 59.606 70.059,59.500 69.891,59.500 69.591 C 59.500 69.335,59.325 68.989,59.083 68.765 C 58.854 68.552,58.667 68.285,58.667 68.172 C 58.667 68.058,58.479 67.742,58.250 67.470 C 58.021 67.197,57.833 66.840,57.833 66.676 C 57.833 66.512,57.688 66.194,57.510 65.968 C 57.333 65.742,57.137 65.355,57.075 65.108 C 57.013 64.861,56.833 64.567,56.674 64.454 C 56.505 64.334,56.342 63.915,56.277 63.434 C 56.216 62.986,56.002 62.086,55.801 61.434 C 55.243 59.623,55.251 51.353,55.812 50.090 C 56.014 49.635,56.224 48.830,56.280 48.302 C 56.357 47.566,56.453 47.318,56.690 47.243 C 56.893 47.178,57.035 46.922,57.103 46.499 C 57.160 46.144,57.305 45.816,57.427 45.769 C 57.549 45.722,57.740 45.376,57.853 44.999 C 57.966 44.622,58.187 44.245,58.343 44.161 C 58.500 44.078,58.674 43.761,58.731 43.458 C 58.788 43.154,58.984 42.778,59.167 42.621 C 59.350 42.465,59.500 42.191,59.500 42.013 C 59.500 41.835,59.650 41.642,59.833 41.583 C 60.017 41.525,60.167 41.416,60.167 41.341 C 60.167 41.267,60.657 40.700,61.257 40.082 C 61.857 39.465,62.538 38.709,62.772 38.403 C 63.005 38.097,63.358 37.796,63.556 37.735 C 63.755 37.674,64.029 37.522,64.167 37.396 C 65.469 36.208,65.833 35.837,65.833 35.698 C 65.833 35.610,66.088 35.489,66.400 35.431 C 66.711 35.372,67.143 35.187,67.358 35.020 C 67.574 34.852,68.035 34.662,68.384 34.598 C 68.732 34.534,69.057 34.378,69.106 34.251 C 69.155 34.124,69.413 33.972,69.680 33.914 C 70.692 33.691,70.667 33.937,70.659 24.338 C 70.653 16.869,70.614 15.485,70.395 14.917 C 70.254 14.550,70.031 13.818,69.899 13.289 C 69.767 12.761,69.515 12.049,69.338 11.706 C 69.161 11.364,68.940 10.877,68.846 10.625 C 68.752 10.373,68.598 10.167,68.504 10.167 C 68.410 10.167,68.333 9.989,68.333 9.773 C 68.333 9.556,68.108 9.096,67.833 8.750 C 67.558 8.404,67.333 8.061,67.333 7.988 C 67.333 7.915,67.183 7.808,67.000 7.750 C 66.816 7.692,66.667 7.498,66.667 7.318 C 66.667 7.128,66.502 6.929,66.273 6.842 C 66.056 6.760,65.833 6.574,65.778 6.429 C 65.723 6.285,65.597 6.167,65.499 6.167 C 65.401 6.167,64.951 5.792,64.500 5.333 C 63.949 4.774,63.543 4.500,63.262 4.500 C 63.024 4.500,62.773 4.365,62.677 4.186 C 62.584 4.013,62.306 3.821,62.059 3.759 C 61.812 3.697,61.433 3.507,61.217 3.337 C 61.000 3.167,60.507 2.976,60.120 2.912 C 59.733 2.849,59.300 2.695,59.158 2.569 C 58.588 2.067,54.544 1.857,51.531 2.173 M57.167 2.494 C 57.487 2.578,58.265 2.772,58.894 2.925 C 59.523 3.078,60.489 3.438,61.039 3.726 C 61.590 4.014,62.313 4.390,62.645 4.560 C 65.975 6.268,68.915 10.465,69.985 15.038 C 70.493 17.209,70.562 32.384,70.067 33.040 C 69.799 33.396,68.705 34.009,67.167 34.664 C 65.839 35.229,62.777 37.697,61.250 39.431 C 60.700 40.056,60.098 40.720,59.913 40.908 C 59.397 41.431,58.331 43.103,57.761 44.280 C 57.620 44.572,57.434 44.854,57.348 44.908 C 57.262 44.961,57.101 45.285,56.990 45.627 C 56.880 45.970,56.706 46.355,56.603 46.483 C 54.855 48.662,54.291 59.549,55.753 62.917 C 55.872 63.192,56.059 63.754,56.167 64.167 C 56.276 64.579,56.458 65.029,56.572 65.167 C 56.686 65.304,57.056 65.979,57.394 66.667 C 59.172 70.285,61.092 72.616,64.167 74.892 C 64.854 75.401,65.567 75.935,65.750 76.080 C 66.109 76.363,66.501 76.579,68.627 77.662 C 69.385 78.048,70.087 78.519,70.188 78.707 C 70.419 79.138,70.407 94.783,70.176 95.392 C 70.091 95.617,69.935 96.277,69.832 96.859 C 69.728 97.441,69.547 98.067,69.430 98.250 C 69.313 98.433,69.121 98.883,69.004 99.250 C 68.887 99.617,68.697 100.029,68.582 100.167 C 68.467 100.304,68.318 100.604,68.251 100.833 C 67.550 103.230,62.915 107.052,59.250 108.257 C 56.604 109.127,51.798 109.222,50.580 108.428 C 50.394 108.308,49.930 108.156,49.548 108.091 C 49.165 108.027,48.767 107.871,48.663 107.745 C 48.559 107.620,48.198 107.430,47.862 107.323 C 47.333 107.155,46.103 106.467,45.351 105.919 C 43.224 104.369,40.353 100.493,39.834 98.469 C 39.733 98.074,39.522 97.450,39.367 97.083 C 39.111 96.483,39.075 95.206,39.000 84.217 C 38.934 74.521,38.872 71.972,38.700 71.800 C 38.528 71.628,35.980 71.563,26.367 71.485 C 18.188 71.419,14.060 71.327,13.667 71.202 C 12.227 70.744,11.063 70.287,10.833 70.090 C 10.696 69.972,10.303 69.786,9.961 69.676 C 9.618 69.566,9.294 69.405,9.241 69.319 C 9.188 69.233,8.835 69.004,8.457 68.811 C 7.709 68.430,5.397 66.215,4.451 64.974 C 1.030 60.487,0.537 53.074,3.354 48.500 C 3.439 48.362,3.660 47.931,3.845 47.542 C 4.031 47.152,4.249 46.833,4.330 46.833 C 4.411 46.833,4.527 46.679,4.586 46.490 C 4.906 45.484,7.754 43.147,10.167 41.912 C 13.681 40.114,13.143 40.171,27.031 40.109 C 35.962 40.069,38.535 40.012,38.734 39.847 C 38.956 39.662,38.994 38.108,39.041 27.276 L 39.093 14.917 39.478 13.833 C 39.819 12.876,40.371 11.679,41.393 9.687 C 43.125 6.310,47.297 3.569,52.417 2.445 C 53.052 2.306,56.586 2.342,57.167 2.494 M131.402 11.339 C 130.569 11.407,129.669 11.574,129.402 11.710 C 129.135 11.846,128.542 12.009,128.083 12.073 C 127.625 12.137,126.966 12.334,126.620 12.511 C 126.273 12.688,125.899 12.833,125.789 12.833 C 125.678 12.833,125.212 13.012,124.752 13.230 C 124.293 13.448,123.729 13.714,123.500 13.821 C 122.933 14.087,122.184 14.546,120.561 15.625 C 120.320 15.785,120.001 15.993,119.853 16.087 C 119.007 16.621,116.338 19.238,115.356 20.495 C 114.177 22.005,113.000 23.748,113.000 23.984 C 113.000 24.059,112.824 24.379,112.609 24.696 C 112.394 25.013,112.163 25.492,112.096 25.761 C 112.029 26.030,111.872 26.364,111.746 26.503 C 111.621 26.642,111.435 27.129,111.334 27.586 C 111.232 28.043,111.040 28.583,110.908 28.785 C 110.775 28.988,110.591 29.701,110.497 30.369 C 110.404 31.037,110.199 31.958,110.042 32.417 C 109.641 33.588,109.649 38.855,110.054 40.085 C 110.204 40.543,110.404 41.463,110.497 42.131 C 110.591 42.799,110.774 43.512,110.905 43.715 C 111.035 43.917,111.192 44.383,111.253 44.750 C 111.314 45.117,111.492 45.604,111.649 45.833 C 111.805 46.063,112.025 46.566,112.138 46.951 C 112.250 47.337,112.417 47.698,112.507 47.754 C 112.598 47.810,112.786 48.095,112.925 48.386 C 113.862 50.348,118.457 55.833,119.162 55.833 C 119.240 55.833,119.703 56.159,120.193 56.556 C 120.683 56.954,121.280 57.385,121.520 57.514 C 123.078 58.356,123.426 58.559,123.500 58.672 C 123.546 58.742,123.893 58.882,124.272 58.984 C 124.651 59.086,125.050 59.276,125.158 59.406 C 125.266 59.537,125.743 59.727,126.217 59.829 C 126.691 59.930,127.246 60.123,127.450 60.257 C 127.654 60.390,128.293 60.569,128.869 60.653 C 129.445 60.737,130.364 60.925,130.910 61.070 C 132.427 61.472,137.519 61.440,139.177 61.017 C 139.859 60.843,140.785 60.649,141.236 60.586 C 141.686 60.523,142.322 60.328,142.650 60.152 C 142.977 59.977,143.389 59.833,143.564 59.833 C 143.740 59.833,144.266 59.653,144.733 59.433 C 145.201 59.213,145.771 58.947,146.000 58.842 C 147.284 58.252,147.520 58.115,148.817 57.208 C 149.374 56.819,149.868 56.500,149.915 56.500 C 150.008 56.500,150.240 56.304,151.252 55.368 C 152.757 53.978,152.922 54.409,149.617 51.101 C 146.195 47.676,146.234 47.695,144.903 48.785 C 143.588 49.861,142.622 50.500,142.309 50.500 C 142.167 50.500,141.921 50.645,141.761 50.821 C 141.601 50.998,141.158 51.194,140.777 51.258 C 140.395 51.321,139.804 51.515,139.462 51.688 C 138.013 52.422,132.097 52.408,130.417 51.666 C 130.050 51.504,129.487 51.317,129.167 51.250 C 128.846 51.184,128.471 51.033,128.333 50.915 C 128.196 50.797,127.821 50.581,127.500 50.436 C 126.646 50.051,125.838 49.563,125.482 49.219 C 125.310 49.053,124.941 48.729,124.662 48.500 C 124.057 48.003,123.241 47.184,122.667 46.497 C 122.438 46.222,122.114 45.857,121.948 45.685 C 121.627 45.353,121.210 44.673,120.659 43.583 C 120.474 43.217,120.213 42.729,120.080 42.500 C 119.947 42.271,119.837 41.948,119.836 41.783 C 119.834 41.617,119.680 41.146,119.493 40.735 C 118.834 39.287,118.769 32.882,119.403 31.913 C 119.545 31.698,119.740 31.169,119.836 30.738 C 119.933 30.307,120.154 29.774,120.328 29.553 C 120.501 29.332,120.691 28.937,120.748 28.676 C 120.805 28.415,120.998 28.069,121.176 27.908 C 121.354 27.747,121.500 27.528,121.500 27.421 C 121.500 27.314,121.669 27.071,121.875 26.880 C 122.081 26.690,122.475 26.217,122.750 25.830 C 123.412 24.898,126.417 22.436,127.208 22.178 C 127.552 22.066,127.833 21.908,127.833 21.827 C 127.833 21.746,128.152 21.588,128.542 21.474 C 128.931 21.361,129.409 21.169,129.604 21.046 C 129.798 20.923,130.361 20.754,130.854 20.669 C 131.347 20.585,132.275 20.401,132.917 20.261 C 134.466 19.922,135.623 19.941,137.333 20.333 C 138.112 20.512,138.938 20.662,139.167 20.668 C 139.396 20.673,139.958 20.862,140.417 21.087 C 140.875 21.312,141.334 21.498,141.436 21.498 C 141.538 21.499,141.801 21.640,142.019 21.810 C 142.238 21.981,142.603 22.179,142.831 22.251 C 143.275 22.390,144.564 23.309,145.481 24.142 C 145.896 24.518,146.117 24.614,146.315 24.504 C 146.817 24.225,152.133 18.752,152.233 18.411 C 152.379 17.915,148.327 14.516,147.574 14.503 C 147.477 14.501,147.144 14.313,146.833 14.083 C 146.523 13.854,146.143 13.667,145.990 13.667 C 145.837 13.667,145.520 13.516,145.286 13.332 C 145.052 13.148,144.611 12.950,144.305 12.893 C 144.000 12.836,143.525 12.658,143.250 12.498 C 142.975 12.337,142.273 12.124,141.690 12.025 C 141.107 11.925,140.526 11.757,140.399 11.652 C 139.916 11.251,134.678 11.069,131.402 11.339 M163.416 11.542 C 163.366 11.748,163.346 23.017,163.371 36.583 L 163.417 61.250 184.833 61.250 L 206.250 61.250 206.295 57.227 C 206.321 54.851,206.271 53.026,206.174 52.769 L 206.008 52.333 189.530 52.333 C 173.778 52.333,173.040 52.320,172.776 52.029 C 172.522 51.748,172.500 50.093,172.500 31.628 L 172.500 11.533 171.975 11.350 C 171.651 11.237,169.932 11.167,167.478 11.167 L 163.506 11.167 163.416 11.542 M217.458 11.347 C 217.183 11.507,217.167 12.874,217.167 36.338 L 217.167 61.160 217.542 61.252 C 217.748 61.303,219.792 61.323,222.083 61.297 L 226.250 61.250 226.292 36.434 C 226.323 18.232,226.284 11.559,226.147 11.393 C 225.913 11.112,217.935 11.069,217.458 11.347 M258.537 11.328 C 257.686 11.405,256.892 11.549,256.772 11.648 C 256.653 11.747,255.979 11.939,255.275 12.073 C 254.571 12.208,253.829 12.434,253.627 12.576 C 253.425 12.717,253.137 12.833,252.988 12.833 C 252.838 12.833,252.364 13.021,251.933 13.250 C 251.502 13.479,251.046 13.667,250.921 13.667 C 250.795 13.667,250.469 13.854,250.197 14.083 C 249.925 14.313,249.638 14.501,249.559 14.503 C 249.481 14.504,249.042 14.769,248.583 15.091 C 248.125 15.413,247.563 15.801,247.333 15.954 C 245.724 17.026,243.456 19.238,242.072 21.083 C 241.934 21.267,241.599 21.708,241.328 22.065 C 241.056 22.421,240.833 22.803,240.833 22.914 C 240.833 23.024,240.688 23.247,240.509 23.408 C 240.331 23.569,240.139 23.913,240.082 24.172 C 240.025 24.432,239.875 24.730,239.748 24.835 C 239.621 24.940,239.429 25.302,239.321 25.638 C 239.213 25.975,239.030 26.363,238.914 26.500 C 238.799 26.637,238.621 27.146,238.520 27.630 C 238.418 28.114,238.224 28.679,238.089 28.885 C 237.953 29.092,237.764 29.816,237.667 30.494 C 237.571 31.172,237.382 32.054,237.246 32.453 C 236.902 33.467,236.900 38.767,237.243 39.928 C 237.377 40.380,237.572 41.309,237.678 41.993 C 237.783 42.676,238.012 43.500,238.185 43.824 C 238.358 44.147,238.500 44.582,238.500 44.789 C 238.500 45.157,238.734 45.669,240.156 48.417 C 241.525 51.062,244.196 54.180,246.657 56.007 C 247.258 56.453,247.857 56.916,247.988 57.034 C 248.241 57.264,248.834 57.610,249.917 58.161 C 250.283 58.347,250.729 58.612,250.907 58.750 C 251.085 58.887,251.356 59.000,251.509 59.000 C 251.663 59.000,251.985 59.155,252.225 59.343 C 252.465 59.532,252.944 59.730,253.289 59.784 C 253.634 59.837,254.213 60.029,254.575 60.211 C 254.937 60.392,255.687 60.604,256.241 60.683 C 256.796 60.761,257.660 60.939,258.161 61.079 C 259.442 61.436,264.939 61.438,266.099 61.082 C 266.548 60.943,267.439 60.754,268.078 60.661 C 268.716 60.567,269.411 60.378,269.621 60.241 C 269.830 60.103,270.382 59.919,270.847 59.831 C 271.312 59.742,271.884 59.520,272.119 59.335 C 272.353 59.151,272.640 59.000,272.756 59.000 C 272.991 59.000,274.617 58.171,275.203 57.751 C 275.412 57.602,275.962 57.241,276.424 56.948 C 277.365 56.353,277.443 56.291,278.509 55.294 C 279.914 53.980,280.064 54.352,276.813 51.090 C 273.417 47.682,273.512 47.729,272.124 48.789 C 270.702 49.877,269.767 50.500,269.555 50.500 C 269.458 50.500,269.195 50.644,268.972 50.820 C 268.748 50.995,268.270 51.194,267.908 51.262 C 267.546 51.329,266.983 51.523,266.657 51.692 C 264.418 52.855,257.938 52.228,254.893 50.554 C 254.422 50.295,253.728 49.913,253.352 49.705 C 252.975 49.497,252.667 49.251,252.667 49.158 C 252.667 49.065,252.535 48.942,252.375 48.885 C 252.104 48.788,250.085 46.776,249.193 45.714 C 248.458 44.839,247.001 42.126,247.001 41.630 C 247.000 41.473,246.831 41.023,246.625 40.630 C 246.067 39.569,246.048 32.968,246.600 31.917 C 246.792 31.550,247.004 30.954,247.072 30.592 C 247.139 30.230,247.338 29.752,247.514 29.528 C 247.690 29.305,247.835 29.038,247.836 28.936 C 247.846 28.371,250.275 25.253,251.441 24.311 C 251.886 23.952,252.438 23.504,252.667 23.316 C 253.732 22.443,253.922 22.318,254.322 22.224 C 254.558 22.168,254.900 21.988,255.083 21.824 C 255.267 21.659,255.623 21.473,255.875 21.411 C 256.128 21.348,256.612 21.155,256.952 20.982 C 257.292 20.808,257.761 20.666,257.994 20.665 C 258.226 20.664,258.829 20.551,259.333 20.416 C 261.010 19.963,262.747 19.930,264.457 20.318 C 265.304 20.510,266.166 20.669,266.373 20.672 C 266.580 20.675,267.125 20.862,267.583 21.087 C 268.042 21.312,268.543 21.498,268.698 21.498 C 268.854 21.499,269.032 21.583,269.095 21.685 C 269.158 21.787,269.593 22.043,270.063 22.253 C 270.533 22.463,271.441 23.085,272.082 23.635 C 273.496 24.847,273.056 25.058,276.625 21.460 C 279.952 18.106,279.900 18.245,278.315 17.000 C 277.674 16.496,276.984 15.933,276.783 15.750 C 276.407 15.408,275.803 15.039,274.903 14.602 C 274.621 14.465,274.295 14.238,274.178 14.097 C 274.062 13.957,273.711 13.794,273.398 13.736 C 273.086 13.677,272.660 13.495,272.451 13.331 C 272.242 13.166,271.737 12.943,271.327 12.833 C 270.918 12.724,270.486 12.554,270.366 12.456 C 270.247 12.358,269.684 12.183,269.116 12.068 C 268.548 11.952,267.760 11.739,267.365 11.593 C 266.501 11.274,260.974 11.109,258.537 11.328 M290.583 11.542 C 290.533 11.748,290.513 23.017,290.538 36.583 L 290.583 61.250 294.750 61.297 C 297.042 61.323,299.085 61.303,299.292 61.252 L 299.667 61.160 299.667 53.075 L 299.667 44.989 300.042 44.844 C 300.330 44.733,300.497 44.782,300.766 45.058 C 300.957 45.255,301.513 45.754,302.000 46.167 C 302.488 46.579,303.047 47.067,303.244 47.250 C 303.440 47.433,304.347 48.217,305.259 48.991 C 306.171 49.765,307.076 50.552,307.272 50.741 C 307.467 50.929,308.018 51.421,308.496 51.833 C 308.975 52.246,309.526 52.733,309.722 52.917 C 309.917 53.100,310.604 53.691,311.247 54.229 C 311.890 54.768,312.971 55.705,313.648 56.313 C 315.404 57.888,315.883 58.314,316.167 58.555 C 316.304 58.672,317.099 59.345,317.934 60.051 L 319.451 61.333 326.049 61.333 C 332.253 61.333,333.259 61.265,332.608 60.885 C 332.372 60.747,330.216 58.859,329.593 58.244 C 329.405 58.058,328.301 57.104,327.142 56.124 C 325.982 55.144,324.670 54.008,324.225 53.598 C 323.780 53.189,323.268 52.718,323.086 52.552 C 322.905 52.386,322.230 51.811,321.586 51.273 C 320.943 50.736,319.861 49.799,319.183 49.190 C 317.112 47.333,317.028 47.258,316.728 47.006 C 314.895 45.465,313.000 43.832,312.659 43.498 C 312.097 42.948,310.397 41.463,308.750 40.082 C 306.759 38.414,304.667 36.479,304.667 36.306 C 304.667 36.121,305.518 35.277,307.161 33.833 C 307.839 33.237,308.661 32.499,308.988 32.193 C 309.316 31.886,309.846 31.436,310.167 31.193 C 310.487 30.949,310.825 30.664,310.917 30.558 C 311.008 30.452,311.571 29.969,312.167 29.484 C 312.762 28.999,313.404 28.448,313.591 28.260 C 314.256 27.591,316.544 25.581,316.812 25.431 C 316.961 25.347,317.238 25.122,317.428 24.931 C 317.618 24.740,318.327 24.096,319.005 23.500 C 319.683 22.904,320.654 22.042,321.163 21.583 C 321.673 21.125,322.377 20.525,322.728 20.250 C 323.080 19.975,323.571 19.563,323.819 19.333 C 324.540 18.669,325.659 17.680,326.917 16.596 C 327.558 16.043,328.346 15.352,328.667 15.060 C 328.987 14.769,329.775 14.088,330.417 13.547 C 333.433 11.005,333.744 11.167,325.833 11.167 C 319.463 11.167,319.324 11.180,318.583 11.856 C 318.400 12.023,318.049 12.330,317.804 12.538 C 317.559 12.746,316.846 13.374,316.221 13.933 C 314.387 15.573,313.080 16.715,312.424 17.250 C 312.087 17.525,311.606 17.938,311.354 18.167 C 310.030 19.370,307.910 21.209,305.772 23.006 C 305.613 23.140,305.237 23.475,304.939 23.750 C 303.958 24.652,301.205 27.034,300.636 27.473 C 300.424 27.637,300.270 27.645,300.011 27.506 C 299.671 27.324,299.667 27.233,299.667 19.407 L 299.667 11.492 299.239 11.329 C 299.004 11.240,296.983 11.167,294.742 11.167 L 290.673 11.167 290.583 11.542 M77.763 39.850 C 77.404 39.936,77.015 40.085,76.899 40.181 C 76.784 40.277,76.182 40.427,75.562 40.515 C 74.942 40.603,74.318 40.770,74.175 40.886 C 74.033 41.002,73.654 41.224,73.333 41.381 C 73.012 41.537,72.600 41.757,72.417 41.871 C 72.233 41.984,71.708 42.300,71.250 42.574 C 70.359 43.105,67.167 46.221,67.167 46.560 C 67.167 46.671,66.945 47.022,66.673 47.340 C 66.402 47.657,66.177 48.067,66.172 48.250 C 66.168 48.433,66.046 48.808,65.901 49.083 C 64.603 51.546,63.984 58.084,64.883 59.833 C 65.048 60.154,65.249 60.679,65.329 61.000 C 65.662 62.330,66.285 63.847,66.630 64.169 C 66.834 64.358,67.000 64.593,67.000 64.691 C 67.000 64.885,69.586 67.835,69.946 68.051 C 70.069 68.125,70.353 68.368,70.577 68.593 C 70.801 68.817,71.071 69.000,71.177 69.000 C 71.282 69.000,71.591 69.188,71.864 69.417 C 72.136 69.646,72.492 69.833,72.654 69.833 C 72.816 69.833,73.083 69.982,73.247 70.163 C 73.411 70.345,73.817 70.544,74.148 70.606 C 74.479 70.668,74.827 70.823,74.921 70.951 C 75.014 71.079,75.614 71.263,76.254 71.361 C 76.893 71.458,77.715 71.661,78.080 71.811 C 79.085 72.224,93.621 72.204,94.500 71.788 C 94.821 71.636,95.561 71.437,96.145 71.345 C 96.729 71.254,97.383 71.064,97.598 70.923 C 97.812 70.782,98.071 70.667,98.172 70.667 C 98.273 70.667,98.601 70.479,98.902 70.250 C 99.202 70.021,99.580 69.833,99.742 69.833 C 99.903 69.833,100.258 69.646,100.530 69.417 C 100.803 69.188,101.121 69.000,101.238 69.000 C 101.356 69.000,101.669 68.811,101.934 68.579 C 102.583 68.014,102.603 67.994,103.162 67.385 C 103.430 67.093,103.803 66.772,103.991 66.671 C 104.180 66.571,104.333 66.341,104.333 66.161 C 104.333 65.981,104.443 65.833,104.577 65.833 C 104.712 65.833,104.905 65.678,105.007 65.487 C 105.109 65.297,105.336 64.997,105.513 64.821 C 105.689 64.644,105.833 64.402,105.833 64.282 C 105.833 64.163,106.021 63.811,106.250 63.500 C 106.479 63.189,106.669 62.781,106.672 62.593 C 106.675 62.404,106.862 61.950,107.088 61.583 C 107.314 61.217,107.499 60.750,107.499 60.547 C 107.500 60.343,107.646 59.893,107.824 59.547 C 108.447 58.338,108.428 52.597,107.799 51.877 C 107.658 51.716,107.489 51.283,107.424 50.917 C 107.359 50.550,107.162 50.016,106.986 49.730 C 106.810 49.445,106.667 49.103,106.667 48.971 C 106.667 48.839,106.479 48.477,106.250 48.167 C 106.021 47.856,105.833 47.469,105.833 47.307 C 105.833 47.145,105.683 46.931,105.500 46.833 C 105.317 46.735,105.167 46.553,105.167 46.427 C 105.167 46.121,102.063 43.042,101.609 42.899 C 101.412 42.837,101.154 42.648,101.036 42.481 C 100.918 42.313,100.524 42.096,100.161 41.998 C 99.797 41.901,99.500 41.752,99.500 41.669 C 99.500 41.404,97.785 40.643,96.842 40.489 C 96.343 40.407,95.668 40.207,95.342 40.045 C 94.666 39.708,79.079 39.536,77.763 39.850 M95.517 40.579 C 99.780 41.612,104.453 45.128,105.821 48.333 C 105.919 48.563,106.070 48.862,106.156 49.000 C 107.965 51.880,108.325 58.173,106.839 60.945 C 106.653 61.294,106.500 61.675,106.500 61.792 C 106.500 63.081,102.473 67.926,100.715 68.752 C 100.368 68.916,100.044 69.108,99.997 69.181 C 99.949 69.253,99.574 69.469,99.163 69.660 C 98.753 69.852,98.229 70.114,98.000 70.243 C 96.124 71.300,94.019 71.525,86.169 71.510 C 76.711 71.491,76.130 71.384,71.833 68.874 C 70.268 67.959,66.333 63.420,66.333 62.529 C 66.333 62.398,66.147 61.870,65.920 61.354 C 65.692 60.839,65.435 60.004,65.348 59.500 C 65.262 58.996,65.112 58.283,65.016 57.917 C 64.619 56.403,65.156 51.570,65.864 50.288 C 65.977 50.084,66.187 49.579,66.331 49.167 C 66.645 48.268,67.856 46.391,68.842 45.277 C 69.691 44.316,72.488 42.178,72.906 42.170 C 72.992 42.168,73.217 42.029,73.406 41.861 C 73.831 41.483,74.952 41.063,76.820 40.582 C 79.170 39.977,93.019 39.975,95.517 40.579 M128.750 66.747 C 128.017 66.862,126.817 67.046,126.083 67.156 C 124.706 67.363,122.111 68.151,121.456 68.562 C 121.251 68.691,120.810 68.844,120.475 68.902 C 120.141 68.961,119.772 69.124,119.655 69.264 C 119.539 69.404,119.212 69.629,118.930 69.763 C 116.721 70.812,113.966 73.410,112.890 75.458 C 112.733 75.756,112.550 76.000,112.482 76.000 C 112.414 76.000,112.269 76.281,112.159 76.625 C 112.048 76.969,111.859 77.364,111.738 77.503 C 111.617 77.642,111.407 78.242,111.271 78.836 C 111.135 79.431,110.900 80.329,110.749 80.833 C 110.397 82.007,110.497 86.666,110.899 87.792 C 111.038 88.182,111.237 88.969,111.341 89.542 C 111.444 90.115,111.597 90.665,111.679 90.764 C 111.761 90.864,111.939 91.257,112.073 91.638 C 112.208 92.019,112.397 92.425,112.495 92.540 C 112.916 93.038,113.518 93.951,113.705 94.375 C 113.816 94.627,113.961 94.833,114.027 94.833 C 114.094 94.833,114.509 95.191,114.949 95.629 C 115.390 96.066,116.069 96.628,116.458 96.879 C 116.848 97.129,117.448 97.513,117.792 97.733 C 118.135 97.953,118.599 98.188,118.822 98.254 C 119.045 98.321,119.457 98.515,119.739 98.687 C 120.020 98.858,120.438 98.999,120.667 99.000 C 120.896 99.001,121.328 99.150,121.627 99.333 C 121.926 99.515,122.601 99.708,123.127 99.761 C 123.653 99.815,124.496 99.996,125.000 100.163 C 125.544 100.344,126.934 100.546,128.417 100.659 C 129.792 100.764,131.180 100.919,131.502 101.004 C 131.824 101.089,132.928 101.232,133.954 101.322 C 135.182 101.430,136.076 101.602,136.568 101.826 C 136.979 102.013,137.413 102.168,137.533 102.170 C 138.386 102.182,140.062 103.970,140.309 105.133 C 140.688 106.916,139.239 109.667,137.921 109.667 C 137.841 109.667,137.656 109.775,137.510 109.908 C 137.364 110.040,136.758 110.259,136.164 110.393 C 135.569 110.528,134.783 110.717,134.417 110.815 C 132.749 111.258,128.046 110.725,126.812 109.954 C 126.595 109.818,126.198 109.655,125.932 109.593 C 124.873 109.346,123.288 107.545,123.088 106.360 L 122.970 105.663 116.360 105.706 L 109.750 105.750 109.784 107.083 C 109.803 107.817,109.940 108.754,110.088 109.167 C 110.235 109.579,110.423 110.313,110.504 110.797 C 110.585 111.281,110.804 111.873,110.992 112.111 C 111.180 112.350,111.333 112.674,111.333 112.831 C 111.333 112.989,111.502 113.309,111.708 113.542 C 111.915 113.776,112.336 114.386,112.646 114.899 C 112.955 115.412,113.555 116.165,113.979 116.573 C 115.892 118.413,116.564 119.000,116.754 119.000 C 116.867 119.000,117.062 119.124,117.188 119.276 C 117.314 119.428,117.642 119.657,117.917 119.785 C 118.192 119.913,118.972 120.314,119.650 120.676 C 120.329 121.037,120.996 121.333,121.134 121.333 C 121.272 121.333,121.767 121.512,122.234 121.730 C 122.701 121.947,123.457 122.180,123.914 122.246 C 124.372 122.312,124.953 122.473,125.207 122.604 C 126.726 123.390,136.418 123.319,138.704 122.506 C 139.229 122.319,139.866 122.166,140.121 122.166 C 140.375 122.166,140.822 122.020,141.113 121.843 C 141.404 121.665,141.929 121.471,142.280 121.411 C 142.630 121.351,143.106 121.170,143.337 121.008 C 143.567 120.846,143.931 120.658,144.145 120.590 C 144.359 120.522,144.800 120.287,145.124 120.067 C 145.448 119.847,145.785 119.667,145.872 119.667 C 145.959 119.667,146.230 119.513,146.474 119.324 C 148.017 118.131,149.345 117.015,149.733 116.583 C 150.333 115.917,151.833 113.851,151.833 113.691 C 151.833 113.622,152.021 113.311,152.250 113.000 C 152.479 112.689,152.667 112.288,152.667 112.109 C 152.667 111.929,152.848 111.399,153.070 110.931 C 153.907 109.160,153.871 102.611,153.011 100.417 C 151.802 97.328,150.559 95.612,148.669 94.418 C 148.344 94.213,147.977 93.923,147.852 93.773 C 147.728 93.623,147.532 93.500,147.417 93.500 C 147.302 93.500,147.118 93.392,147.009 93.261 C 146.900 93.129,146.572 92.972,146.280 92.911 C 145.989 92.850,145.450 92.631,145.083 92.423 C 144.717 92.215,144.119 91.991,143.756 91.925 C 143.392 91.859,142.905 91.708,142.672 91.589 C 142.440 91.470,141.688 91.280,141.000 91.167 C 140.313 91.054,139.610 90.888,139.440 90.798 C 139.269 90.708,138.099 90.532,136.838 90.406 C 135.578 90.280,134.351 90.102,134.112 90.011 C 133.872 89.920,132.682 89.761,131.468 89.658 C 130.253 89.555,129.059 89.367,128.814 89.240 C 128.569 89.113,128.042 88.959,127.642 88.897 C 123.742 88.291,122.232 83.794,125.000 81.026 C 125.289 80.737,125.583 80.500,125.654 80.500 C 125.725 80.500,125.946 80.358,126.146 80.184 C 126.347 80.011,126.789 79.817,127.130 79.753 C 127.471 79.690,127.882 79.520,128.043 79.376 C 128.639 78.841,134.417 78.780,135.047 79.303 C 135.174 79.409,135.586 79.604,135.961 79.736 C 137.142 80.153,138.232 81.279,138.839 82.710 L 139.281 83.750 145.599 83.750 L 151.917 83.750 151.864 81.926 C 151.827 80.617,151.727 79.910,151.510 79.426 C 151.344 79.054,151.160 78.476,151.100 78.142 C 151.040 77.807,150.843 77.346,150.662 77.116 C 150.481 76.886,150.333 76.587,150.333 76.452 C 150.333 76.318,150.216 76.110,150.072 75.991 C 149.929 75.872,149.693 75.544,149.548 75.262 C 148.879 73.959,146.051 71.100,144.714 70.374 C 144.419 70.214,143.744 69.835,143.214 69.530 C 142.241 68.973,141.673 68.728,140.000 68.147 C 139.496 67.971,138.942 67.747,138.769 67.648 C 138.596 67.550,137.771 67.369,136.936 67.247 C 136.100 67.124,134.629 66.908,133.667 66.765 C 131.628 66.463,130.587 66.460,128.750 66.747 M189.308 67.042 C 189.003 67.291,188.259 68.582,188.085 69.167 C 188.017 69.396,187.866 69.696,187.751 69.833 C 187.636 69.971,187.447 70.383,187.330 70.750 C 187.214 71.117,186.979 71.596,186.809 71.814 C 186.639 72.033,186.498 72.333,186.495 72.481 C 186.492 72.629,186.305 73.050,186.079 73.417 C 185.853 73.783,185.668 74.240,185.668 74.433 C 185.667 74.625,185.517 74.917,185.333 75.083 C 185.150 75.249,185.000 75.505,184.999 75.651 C 184.999 75.797,184.774 76.367,184.500 76.917 C 184.226 77.467,184.001 78.001,184.001 78.105 C 184.000 78.208,183.900 78.376,183.777 78.478 C 183.654 78.579,183.459 78.981,183.342 79.370 C 183.226 79.759,182.988 80.257,182.815 80.478 C 182.642 80.698,182.500 80.984,182.500 81.113 C 182.500 81.243,182.313 81.701,182.083 82.131 C 181.854 82.562,181.667 82.998,181.667 83.101 C 181.667 83.204,181.526 83.467,181.355 83.686 C 181.184 83.904,180.991 84.324,180.927 84.617 C 180.863 84.911,180.675 85.323,180.510 85.534 C 180.345 85.744,180.158 86.155,180.094 86.447 C 180.031 86.738,179.871 87.066,179.739 87.176 C 179.608 87.285,179.500 87.461,179.500 87.566 C 179.500 87.672,179.277 88.207,179.005 88.754 C 178.733 89.302,178.508 89.871,178.505 90.019 C 178.502 90.167,178.360 90.467,178.190 90.686 C 178.019 90.904,177.822 91.266,177.752 91.489 C 177.682 91.712,177.447 92.229,177.229 92.639 C 177.011 93.048,176.833 93.475,176.833 93.588 C 176.833 93.700,176.721 93.885,176.585 93.999 C 176.448 94.113,176.253 94.513,176.152 94.889 C 176.051 95.264,175.834 95.742,175.669 95.951 C 175.505 96.160,175.323 96.586,175.264 96.898 C 175.206 97.211,175.047 97.558,174.912 97.670 C 174.777 97.782,174.667 97.953,174.667 98.049 C 174.667 98.205,174.383 98.850,173.333 101.083 C 172.283 103.317,172.000 103.962,172.000 104.118 C 172.000 104.214,171.886 104.387,171.747 104.503 C 171.607 104.619,171.411 105.038,171.311 105.435 C 171.211 105.832,171.025 106.243,170.898 106.349 C 170.771 106.454,170.667 106.619,170.667 106.716 C 170.667 106.871,170.383 107.517,169.333 109.750 C 169.161 110.117,168.785 110.942,168.499 111.583 C 168.212 112.225,167.907 112.862,167.821 113.000 C 167.735 113.138,167.620 113.362,167.566 113.500 C 167.475 113.734,166.875 115.051,166.163 116.583 C 165.992 116.950,165.737 117.513,165.596 117.833 C 165.455 118.154,165.269 118.529,165.182 118.667 C 164.891 119.127,164.500 120.639,164.500 121.304 C 164.500 122.191,164.276 122.162,171.188 122.164 C 178.016 122.167,178.105 122.158,178.258 121.463 C 178.358 121.008,178.980 119.610,179.354 119.000 C 179.438 118.862,179.622 118.487,179.762 118.167 C 181.309 114.636,179.931 114.977,192.408 115.036 C 203.391 115.087,203.333 115.082,203.333 115.920 C 203.333 116.031,203.479 116.306,203.656 116.532 C 203.834 116.758,204.033 117.162,204.098 117.430 C 204.164 117.698,204.356 118.096,204.525 118.314 C 204.695 118.533,204.834 118.795,204.834 118.897 C 204.834 119.000,205.059 119.533,205.333 120.083 C 205.608 120.633,205.832 121.172,205.833 121.280 C 205.835 122.122,206.281 122.173,213.233 122.127 L 219.750 122.083 219.804 121.250 C 219.854 120.463,219.623 119.788,218.805 118.333 C 218.728 118.196,218.584 117.896,218.485 117.667 C 218.387 117.438,218.128 116.875,217.910 116.417 C 217.692 115.958,217.463 115.396,217.401 115.167 C 217.338 114.938,217.148 114.571,216.977 114.353 C 216.806 114.134,216.664 113.834,216.661 113.686 C 216.659 113.538,216.471 113.117,216.246 112.750 C 216.020 112.383,215.835 111.962,215.834 111.814 C 215.834 111.666,215.688 111.360,215.510 111.134 C 215.333 110.908,215.134 110.505,215.068 110.237 C 215.003 109.969,214.811 109.571,214.641 109.353 C 214.472 109.134,214.333 108.845,214.333 108.710 C 214.333 108.576,214.153 108.117,213.933 107.691 C 213.099 106.080,212.500 104.779,212.500 104.580 C 212.500 104.467,212.396 104.288,212.269 104.182 C 212.141 104.076,211.955 103.665,211.855 103.268 C 211.755 102.871,211.564 102.456,211.431 102.345 C 211.297 102.234,211.137 101.905,211.075 101.613 C 211.014 101.322,210.861 100.967,210.736 100.825 C 210.611 100.683,210.397 100.249,210.260 99.861 C 210.123 99.473,209.896 98.991,209.755 98.790 C 209.615 98.590,209.500 98.303,209.500 98.152 C 209.500 98.001,209.357 97.697,209.183 97.475 C 209.008 97.253,208.783 96.764,208.682 96.389 C 208.580 96.013,208.386 95.613,208.249 95.499 C 208.112 95.385,208.000 95.208,207.999 95.105 C 207.999 95.001,207.774 94.467,207.500 93.917 C 207.226 93.367,207.001 92.795,207.001 92.645 C 207.000 92.496,206.891 92.284,206.759 92.174 C 206.626 92.064,206.429 91.698,206.322 91.362 C 206.214 91.025,205.985 90.516,205.813 90.230 C 205.641 89.945,205.500 89.598,205.500 89.461 C 205.500 89.324,205.357 89.030,205.183 88.808 C 205.008 88.586,204.780 88.089,204.676 87.702 C 204.572 87.316,204.418 87.000,204.334 87.000 C 204.249 87.000,204.088 86.681,203.975 86.292 C 203.862 85.902,203.634 85.404,203.468 85.186 C 203.302 84.967,203.166 84.705,203.166 84.603 C 203.166 84.500,202.941 83.967,202.667 83.417 C 202.392 82.867,202.168 82.332,202.167 82.229 C 202.167 82.125,202.055 81.948,201.918 81.834 C 201.781 81.721,201.586 81.320,201.485 80.945 C 201.384 80.569,201.158 80.080,200.984 79.858 C 200.809 79.637,200.667 79.288,200.667 79.083 C 200.667 78.879,200.527 78.533,200.356 78.314 C 200.186 78.096,199.989 77.729,199.921 77.500 C 199.852 77.271,199.654 76.849,199.481 76.564 C 199.308 76.278,199.167 75.932,199.167 75.794 C 199.167 75.657,199.010 75.346,198.819 75.103 C 198.628 74.860,198.396 74.381,198.303 74.039 C 198.210 73.697,198.038 73.304,197.921 73.167 C 197.804 73.029,197.613 72.617,197.497 72.250 C 197.380 71.883,197.146 71.404,196.976 71.186 C 196.806 70.967,196.664 70.667,196.661 70.519 C 196.659 70.371,196.471 69.950,196.246 69.583 C 196.020 69.217,195.835 68.757,195.834 68.562 C 195.834 68.367,195.716 68.110,195.572 67.991 C 195.429 67.872,195.202 67.563,195.068 67.304 L 194.825 66.833 192.194 66.833 C 190.337 66.833,189.489 66.895,189.308 67.042 M234.552 67.708 C 234.327 68.054,234.295 121.669,234.518 121.939 C 234.715 122.176,267.126 122.300,267.736 122.066 C 268.047 121.946,268.141 110.892,267.837 110.094 L 267.675 109.667 258.037 109.667 C 250.764 109.667,248.351 109.618,248.200 109.467 C 248.047 109.313,248.000 104.519,248.000 88.904 C 248.000 77.705,247.953 68.307,247.896 68.021 L 247.792 67.500 241.239 67.500 C 236.180 67.500,234.656 67.547,234.552 67.708 M284.593 67.870 C 284.293 68.298,284.211 103.804,284.506 105.417 C 284.589 105.875,284.743 106.887,284.847 107.666 C 284.950 108.445,285.168 109.345,285.331 109.666 C 285.493 109.987,285.677 110.475,285.739 110.750 C 285.801 111.025,286.107 111.662,286.420 112.167 C 286.733 112.671,287.137 113.346,287.317 113.667 C 287.841 114.601,289.152 116.075,290.500 117.244 C 291.188 117.840,291.881 118.442,292.042 118.581 C 292.202 118.720,292.398 118.833,292.477 118.833 C 292.556 118.833,292.904 119.058,293.250 119.333 C 293.596 119.608,293.951 119.833,294.038 119.833 C 294.126 119.833,294.388 119.983,294.621 120.167 C 294.854 120.350,295.165 120.500,295.312 120.500 C 295.458 120.500,295.955 120.681,296.414 120.902 C 297.618 121.480,298.700 121.818,300.500 122.178 C 301.371 122.351,302.458 122.574,302.917 122.672 C 304.379 122.984,308.048 122.901,309.902 122.513 C 310.810 122.322,311.710 122.167,311.902 122.168 C 312.399 122.169,315.533 121.154,315.844 120.891 C 315.988 120.770,316.363 120.622,316.678 120.562 C 316.992 120.503,317.362 120.361,317.500 120.247 C 317.637 120.133,318.005 119.911,318.318 119.752 C 318.630 119.594,318.967 119.396,319.068 119.313 C 319.450 118.995,320.433 118.332,320.825 118.129 C 321.459 117.800,323.690 115.511,324.281 114.583 C 324.573 114.125,324.933 113.600,325.081 113.417 C 325.396 113.024,325.716 112.472,326.093 111.667 C 326.243 111.346,326.482 110.858,326.624 110.583 C 326.765 110.308,327.022 109.446,327.194 108.667 C 327.367 107.888,327.578 106.950,327.663 106.583 C 327.834 105.852,327.901 68.203,327.732 67.764 C 327.642 67.530,326.908 67.500,321.168 67.500 L 314.706 67.500 314.605 67.875 C 314.550 68.081,314.504 76.613,314.502 86.835 L 314.500 105.419 314.057 106.251 C 312.384 109.397,309.652 110.666,305.045 110.438 C 303.511 110.363,303.011 110.269,302.279 109.923 C 301.787 109.690,301.310 109.500,301.218 109.500 C 301.127 109.500,300.916 109.350,300.750 109.167 C 300.584 108.983,300.359 108.833,300.249 108.833 C 299.915 108.833,298.528 107.132,298.005 106.078 L 297.510 105.083 297.503 86.667 C 297.499 76.537,297.450 68.081,297.395 67.875 L 297.294 67.500 291.073 67.500 L 284.852 67.500 284.593 67.870 M348.860 67.925 C 348.543 68.620,348.586 121.725,348.903 121.989 C 349.320 122.335,372.181 122.151,373.239 121.793 C 373.691 121.639,374.591 121.465,375.239 121.405 C 375.887 121.345,376.719 121.166,377.089 121.007 C 377.459 120.847,378.059 120.662,378.422 120.595 C 378.786 120.527,379.308 120.336,379.583 120.171 C 379.858 120.005,380.346 119.816,380.667 119.750 C 380.988 119.684,381.400 119.497,381.583 119.334 C 381.767 119.172,382.093 118.985,382.309 118.919 C 382.720 118.794,383.610 118.254,384.360 117.676 C 384.603 117.487,384.856 117.333,384.920 117.333 C 385.272 117.333,388.508 114.254,389.789 112.702 C 390.676 111.627,391.160 110.949,391.255 110.652 C 391.310 110.477,391.418 110.333,391.493 110.333 C 391.569 110.333,391.754 110.052,391.906 109.708 C 392.058 109.365,392.473 108.558,392.830 107.917 C 393.187 107.275,393.484 106.609,393.490 106.436 C 393.495 106.264,393.642 105.889,393.815 105.603 C 393.988 105.317,394.213 104.687,394.314 104.204 C 394.416 103.720,394.603 103.157,394.730 102.954 C 394.857 102.750,395.047 101.890,395.151 101.043 C 395.256 100.195,395.426 99.295,395.531 99.043 C 395.796 98.402,395.912 92.983,395.689 91.656 C 395.094 88.118,394.833 86.862,394.598 86.417 C 394.454 86.142,394.334 85.729,394.333 85.500 C 394.331 85.271,394.146 84.708,393.920 84.250 C 393.695 83.792,393.508 83.262,393.505 83.074 C 393.502 82.886,393.313 82.477,393.083 82.167 C 392.854 81.856,392.667 81.472,392.667 81.313 C 392.667 81.154,392.551 80.909,392.411 80.768 C 392.270 80.627,392.043 80.265,391.906 79.964 C 391.769 79.663,391.246 78.854,390.743 78.167 C 390.240 77.479,389.698 76.732,389.539 76.507 C 389.053 75.818,386.264 73.215,385.246 72.500 C 384.920 72.271,384.383 71.877,384.054 71.625 C 383.724 71.373,383.362 71.167,383.250 71.167 C 383.137 71.167,382.866 71.027,382.647 70.856 C 382.429 70.686,382.063 70.488,381.833 70.417 C 381.604 70.346,381.238 70.148,381.019 69.977 C 380.801 69.806,380.462 69.667,380.267 69.667 C 380.071 69.667,379.625 69.513,379.274 69.325 C 378.923 69.137,378.219 68.906,377.709 68.812 C 377.198 68.717,376.615 68.532,376.413 68.399 C 376.207 68.264,375.280 68.087,374.314 67.997 C 373.362 67.909,372.096 67.763,371.500 67.672 C 370.872 67.576,365.927 67.505,359.735 67.503 L 349.054 67.500 348.860 67.925 M372.417 80.373 C 374.152 80.867,375.667 81.515,375.985 81.899 C 376.108 82.046,376.300 82.167,376.413 82.167 C 376.672 82.167,379.334 84.687,379.334 84.933 C 379.334 85.033,379.466 85.235,379.628 85.381 C 379.790 85.528,380.170 86.158,380.473 86.782 C 380.775 87.406,381.159 88.179,381.325 88.500 C 381.490 88.821,381.681 89.489,381.749 89.984 C 381.816 90.479,381.994 91.154,382.143 91.484 C 382.537 92.356,382.528 97.307,382.131 98.202 C 381.979 98.542,381.805 99.180,381.743 99.619 C 381.682 100.058,381.501 100.644,381.343 100.922 C 381.184 101.199,380.999 101.649,380.931 101.922 C 380.824 102.352,380.558 102.820,379.624 104.229 C 378.775 105.509,377.577 106.666,376.167 107.571 C 375.754 107.836,375.211 108.192,374.960 108.363 C 374.708 108.535,374.146 108.743,373.710 108.827 C 373.273 108.911,372.657 109.110,372.339 109.270 C 371.583 109.650,363.010 109.854,362.585 109.502 C 362.241 109.216,362.199 80.371,362.542 80.020 C 362.963 79.588,370.623 79.862,372.417 80.373 M192.836 90.167 C 193.110 90.980,193.658 92.222,194.175 93.200 C 194.354 93.539,194.500 93.906,194.500 94.016 C 194.500 94.127,194.680 94.599,194.899 95.067 C 195.119 95.534,195.499 96.367,195.743 96.917 C 195.988 97.467,196.333 98.194,196.511 98.533 C 196.688 98.872,196.834 99.247,196.834 99.366 C 196.834 99.486,197.059 100.033,197.333 100.583 C 197.608 101.133,197.832 101.705,197.833 101.855 C 197.833 102.004,197.946 102.219,198.083 102.333 C 198.400 102.596,198.398 102.745,198.071 103.071 C 197.460 103.682,185.964 103.405,186.002 102.780 C 186.020 102.474,186.563 101.038,186.732 100.845 C 186.859 100.701,187.017 100.321,187.083 100.000 C 187.150 99.679,187.315 99.291,187.450 99.137 C 187.586 98.983,187.768 98.541,187.854 98.156 C 187.941 97.770,188.159 97.267,188.339 97.038 C 188.519 96.809,188.667 96.470,188.667 96.284 C 188.667 96.098,188.845 95.639,189.063 95.265 C 189.281 94.890,189.511 94.345,189.574 94.053 C 189.637 93.762,189.796 93.434,189.927 93.324 C 190.059 93.215,190.167 92.996,190.167 92.838 C 190.167 92.679,190.350 92.204,190.575 91.781 C 190.800 91.359,191.066 90.706,191.167 90.331 C 191.494 89.119,192.451 89.025,192.836 90.167 " stroke="none" fill="#ececec" fill-rule="evenodd" data-index="1" style="opacity: 1;"></path><path id="path3" d="M51.626 3.005 C 50.059 3.292,49.373 3.540,47.583 4.461 C 43.721 6.451,40.800 10.197,39.758 14.500 L 39.334 16.250 39.331 27.917 C 39.329 36.984,39.281 39.676,39.118 40.000 L 38.907 40.417 26.745 40.517 C 12.816 40.633,13.652 40.548,10.417 42.175 C 7.117 43.835,5.004 45.890,3.589 48.815 C 3.252 49.513,2.875 50.271,2.752 50.501 C 2.402 51.158,1.834 54.455,1.834 55.833 C 1.835 62.420,6.519 68.641,12.917 70.553 C 13.375 70.690,13.938 70.860,14.167 70.932 C 14.396 71.003,20.036 71.104,26.700 71.156 C 36.317 71.231,38.862 71.295,39.033 71.467 C 39.205 71.638,39.269 74.165,39.341 83.717 C 39.447 97.794,39.388 97.269,41.232 100.578 C 47.699 112.186,64.144 110.907,69.024 98.417 C 69.878 96.230,70.000 94.782,69.998 86.834 C 69.995 78.287,70.093 78.839,68.417 77.999 C 67.226 77.403,65.650 76.507,65.500 76.341 C 65.454 76.290,64.699 75.714,63.822 75.061 C 60.945 72.917,58.849 70.353,56.962 66.667 C 53.838 60.566,53.594 51.298,56.416 46.004 C 56.540 45.773,56.808 45.217,57.012 44.770 C 58.881 40.680,63.611 35.997,68.039 33.852 C 70.178 32.816,70.000 33.631,70.000 24.878 C 70.000 15.256,69.866 14.285,68.058 10.833 C 64.928 4.857,58.420 1.757,51.626 3.005 M57.385 3.338 C 58.193 3.430,59.018 3.609,59.219 3.734 C 59.419 3.860,59.883 4.057,60.250 4.172 C 60.617 4.288,61.096 4.521,61.314 4.691 C 61.533 4.861,61.795 5.001,61.897 5.003 C 62.374 5.011,64.937 7.031,65.822 8.097 C 66.676 9.125,68.667 12.508,68.667 12.932 C 68.667 13.071,68.835 13.537,69.040 13.967 C 69.441 14.807,69.807 32.097,69.435 32.628 C 69.354 32.745,68.641 33.154,67.852 33.538 C 66.527 34.182,64.139 35.678,63.608 36.196 C 63.484 36.317,63.015 36.715,62.566 37.080 C 61.299 38.109,58.781 41.032,57.826 42.581 C 57.071 43.806,57.010 43.914,56.745 44.500 C 56.148 45.818,55.773 46.617,55.472 47.210 C 55.298 47.555,55.077 48.267,54.982 48.793 C 54.887 49.320,54.687 50.087,54.538 50.500 C 54.066 51.807,54.129 59.844,54.625 61.511 C 54.831 62.204,55.000 62.912,55.000 63.083 C 55.000 63.254,55.144 63.700,55.321 64.072 C 55.497 64.445,55.758 65.012,55.901 65.333 C 56.043 65.654,56.230 66.029,56.316 66.167 C 56.401 66.304,56.675 66.867,56.923 67.417 C 57.398 68.469,57.960 69.395,58.662 70.283 C 58.894 70.577,59.233 71.019,59.417 71.267 C 59.755 71.724,62.361 74.375,62.922 74.833 C 64.206 75.882,65.769 77.000,65.949 77.000 C 66.069 77.000,66.167 77.066,66.167 77.147 C 66.167 77.227,66.880 77.647,67.751 78.079 C 68.907 78.653,69.361 78.968,69.430 79.243 C 69.755 80.538,69.411 96.595,69.042 97.366 C 68.835 97.796,68.666 98.246,68.666 98.366 C 68.665 98.485,68.564 98.771,68.442 99.000 C 67.243 101.239,66.853 101.874,66.190 102.667 C 64.760 104.377,63.470 105.464,62.000 106.201 C 61.679 106.361,61.304 106.566,61.167 106.654 C 59.172 107.942,54.690 108.696,52.509 108.110 C 52.000 107.974,51.228 107.814,50.795 107.755 C 49.349 107.558,45.595 105.400,44.212 103.971 C 43.147 102.870,41.834 101.166,41.833 100.882 C 41.832 100.809,41.667 100.487,41.466 100.167 C 39.847 97.587,39.792 97.070,39.680 83.217 C 39.603 73.807,39.538 71.305,39.367 71.133 C 39.195 70.961,36.702 70.898,27.283 70.828 C 14.369 70.732,12.748 70.613,11.554 69.673 C 11.316 69.486,11.001 69.333,10.853 69.333 C 10.704 69.333,10.160 69.039,9.642 68.680 C 9.125 68.320,8.487 67.914,8.226 67.776 C 7.349 67.313,5.879 65.751,4.716 64.046 C 4.230 63.333,3.334 61.628,3.334 61.414 C 3.333 61.321,3.172 60.946,2.975 60.581 C 2.159 59.070,2.161 52.534,2.978 50.917 C 3.163 50.550,3.522 49.800,3.777 49.250 C 5.092 46.407,7.628 43.823,10.333 42.570 C 10.654 42.422,11.029 42.201,11.167 42.080 C 11.304 41.958,12.204 41.658,13.167 41.412 L 14.917 40.965 26.952 40.941 C 38.264 40.918,39.006 40.899,39.286 40.619 C 39.564 40.341,39.589 39.545,39.678 28.286 C 39.787 14.296,39.815 14.001,41.254 11.500 C 41.386 11.271,41.616 10.821,41.766 10.500 C 41.915 10.179,42.085 9.879,42.144 9.833 C 42.203 9.787,42.476 9.415,42.750 9.006 C 44.044 7.079,46.807 5.021,49.603 3.903 C 51.281 3.231,54.449 3.001,57.385 3.338 M77.545 40.921 C 76.881 41.043,76.264 41.190,76.172 41.247 C 76.079 41.304,75.574 41.462,75.049 41.599 C 74.524 41.736,73.958 41.995,73.791 42.174 C 73.624 42.353,73.389 42.500,73.269 42.500 C 73.149 42.500,72.871 42.657,72.651 42.849 C 72.430 43.041,72.044 43.306,71.792 43.437 C 71.540 43.568,71.333 43.743,71.333 43.826 C 71.333 43.910,71.189 44.023,71.012 44.079 C 70.364 44.285,68.382 46.455,67.679 47.728 C 67.295 48.423,66.910 49.036,66.824 49.089 C 66.737 49.143,66.667 49.341,66.667 49.531 C 66.667 49.720,66.485 50.297,66.262 50.812 C 65.295 53.055,65.264 59.069,66.209 60.917 C 66.350 61.192,66.811 62.131,67.233 63.005 C 68.060 64.714,70.220 67.170,71.840 68.242 C 72.249 68.512,72.733 68.858,72.917 69.011 C 73.100 69.164,73.451 69.337,73.697 69.395 C 73.942 69.453,74.263 69.620,74.408 69.765 C 74.554 69.911,75.403 70.227,76.295 70.467 L 77.917 70.903 86.167 70.910 C 92.624 70.915,94.543 70.869,95.000 70.696 C 95.321 70.574,96.022 70.410,96.559 70.331 C 97.095 70.252,97.664 70.070,97.822 69.927 C 97.980 69.784,98.478 69.472,98.929 69.234 C 99.381 68.996,99.956 68.690,100.208 68.555 C 100.460 68.420,100.667 68.238,100.667 68.150 C 100.667 68.063,100.846 67.923,101.066 67.840 C 101.915 67.517,104.667 64.592,104.667 64.012 C 104.667 63.936,104.782 63.779,104.923 63.662 C 105.247 63.393,106.204 61.397,106.648 60.066 C 107.747 56.770,107.355 52.171,105.741 49.417 C 105.517 49.034,105.333 48.637,105.333 48.535 C 105.333 47.746,102.700 44.850,100.875 43.632 C 100.302 43.250,99.833 42.891,99.833 42.835 C 99.833 42.779,99.572 42.639,99.252 42.523 C 98.932 42.408,98.554 42.197,98.413 42.056 C 98.161 41.804,96.765 41.377,94.750 40.934 C 93.309 40.618,79.245 40.607,77.545 40.921 " stroke="none" fill="#fb9c94" fill-rule="evenodd" data-index="3"></path><path id="path4" d="M52.417 2.445 C 47.297 3.569,43.125 6.310,41.393 9.687 C 40.371 11.679,39.819 12.876,39.478 13.833 L 39.093 14.917 39.041 27.276 C 38.994 38.108,38.956 39.662,38.734 39.847 C 38.535 40.012,35.962 40.069,27.031 40.109 C 13.143 40.171,13.681 40.114,10.167 41.912 C 7.754 43.147,4.906 45.484,4.586 46.490 C 4.527 46.679,4.411 46.833,4.330 46.833 C 4.249 46.833,4.031 47.152,3.845 47.542 C 3.660 47.931,3.439 48.362,3.354 48.500 C 0.537 53.074,1.030 60.487,4.451 64.974 C 5.397 66.215,7.709 68.430,8.457 68.811 C 8.835 69.004,9.188 69.233,9.241 69.319 C 9.294 69.405,9.618 69.566,9.961 69.676 C 10.303 69.786,10.696 69.972,10.833 70.090 C 11.063 70.287,12.227 70.744,13.667 71.202 C 14.060 71.327,18.188 71.419,26.367 71.485 C 35.980 71.563,38.528 71.628,38.700 71.800 C 38.872 71.972,38.934 74.521,39.000 84.217 C 39.075 95.206,39.111 96.483,39.367 97.083 C 39.522 97.450,39.733 98.074,39.834 98.469 C 40.353 100.493,43.224 104.369,45.351 105.919 C 46.103 106.467,47.333 107.155,47.862 107.323 C 48.198 107.430,48.559 107.620,48.663 107.745 C 48.767 107.871,49.165 108.027,49.548 108.091 C 49.930 108.156,50.394 108.308,50.580 108.428 C 51.798 109.222,56.604 109.127,59.250 108.257 C 62.915 107.052,67.550 103.230,68.251 100.833 C 68.318 100.604,68.467 100.304,68.582 100.167 C 68.697 100.029,68.887 99.617,69.004 99.250 C 69.121 98.883,69.313 98.433,69.430 98.250 C 69.547 98.067,69.728 97.441,69.832 96.859 C 69.935 96.277,70.091 95.617,70.176 95.392 C 70.407 94.783,70.419 79.138,70.188 78.707 C 70.087 78.519,69.385 78.048,68.627 77.662 C 66.501 76.579,66.109 76.363,65.750 76.080 C 65.567 75.935,64.854 75.401,64.167 74.892 C 61.092 72.616,59.172 70.285,57.394 66.667 C 57.056 65.979,56.686 65.304,56.572 65.167 C 56.458 65.029,56.276 64.579,56.167 64.167 C 56.059 63.754,55.872 63.192,55.753 62.917 C 54.291 59.549,54.855 48.662,56.603 46.483 C 56.706 46.355,56.880 45.970,56.990 45.627 C 57.101 45.285,57.262 44.961,57.348 44.908 C 57.434 44.854,57.620 44.572,57.761 44.280 C 58.331 43.103,59.397 41.431,59.913 40.908 C 60.098 40.720,60.700 40.056,61.250 39.431 C 62.777 37.697,65.839 35.229,67.167 34.664 C 68.705 34.009,69.799 33.396,70.067 33.040 C 70.562 32.384,70.493 17.209,69.985 15.038 C 68.915 10.465,65.975 6.268,62.645 4.560 C 62.313 4.390,61.590 4.014,61.039 3.726 C 60.489 3.438,59.523 3.078,58.894 2.925 C 58.265 2.772,57.487 2.578,57.167 2.494 C 56.586 2.342,53.052 2.306,52.417 2.445 M57.208 2.931 C 63.587 4.026,68.714 9.252,69.742 15.707 C 70.119 18.078,70.124 32.249,69.747 32.786 C 69.609 32.985,68.840 33.464,68.039 33.852 C 65.063 35.293,62.444 37.390,59.930 40.344 C 59.141 41.271,57.414 43.891,57.012 44.770 C 56.808 45.217,56.540 45.773,56.416 46.004 C 53.594 51.298,53.838 60.566,56.962 66.667 C 58.849 70.353,60.945 72.917,63.822 75.061 C 64.699 75.714,65.454 76.290,65.500 76.341 C 65.650 76.507,67.226 77.403,68.417 77.999 C 70.093 78.839,69.995 78.287,69.998 86.834 C 70.000 94.782,69.878 96.230,69.024 98.417 C 64.144 110.907,47.699 112.186,41.232 100.578 C 39.388 97.269,39.447 97.794,39.341 83.717 C 39.269 74.165,39.205 71.638,39.033 71.467 C 38.862 71.295,36.317 71.231,26.700 71.156 C 20.036 71.104,14.396 71.003,14.167 70.932 C 13.938 70.860,13.375 70.690,12.917 70.553 C 6.519 68.641,1.835 62.420,1.834 55.833 C 1.834 54.455,2.402 51.158,2.752 50.501 C 2.875 50.271,3.252 49.513,3.589 48.815 C 5.004 45.890,7.117 43.835,10.417 42.175 C 13.652 40.548,12.816 40.633,26.745 40.517 L 38.907 40.417 39.118 40.000 C 39.281 39.676,39.329 36.984,39.331 27.917 L 39.334 16.250 39.758 14.500 C 40.954 9.562,44.009 6.061,49.209 3.668 C 51.078 2.808,54.599 2.483,57.208 2.931 M76.820 40.582 C 74.952 41.063,73.831 41.483,73.406 41.861 C 73.217 42.029,72.992 42.168,72.906 42.170 C 72.488 42.178,69.691 44.316,68.842 45.277 C 67.856 46.391,66.645 48.268,66.331 49.167 C 66.187 49.579,65.977 50.084,65.864 50.288 C 65.156 51.570,64.619 56.403,65.016 57.917 C 65.112 58.283,65.262 58.996,65.348 59.500 C 65.435 60.004,65.692 60.839,65.920 61.354 C 66.147 61.870,66.333 62.398,66.333 62.529 C 66.333 63.420,70.268 67.959,71.833 68.874 C 76.130 71.384,76.711 71.491,86.169 71.510 C 94.019 71.525,96.124 71.300,98.000 70.243 C 98.229 70.114,98.753 69.852,99.163 69.660 C 99.574 69.469,99.949 69.253,99.997 69.181 C 100.044 69.108,100.368 68.916,100.715 68.752 C 102.473 67.926,106.500 63.081,106.500 61.792 C 106.500 61.675,106.653 61.294,106.839 60.945 C 108.325 58.173,107.965 51.880,106.156 49.000 C 106.070 48.862,105.919 48.563,105.821 48.333 C 104.453 45.128,99.780 41.612,95.517 40.579 C 93.019 39.975,79.170 39.977,76.820 40.582 M94.750 40.934 C 96.765 41.377,98.161 41.804,98.413 42.056 C 98.554 42.197,98.932 42.408,99.252 42.523 C 99.572 42.639,99.833 42.779,99.833 42.835 C 99.833 42.891,100.302 43.250,100.875 43.632 C 102.700 44.850,105.333 47.746,105.333 48.535 C 105.333 48.637,105.517 49.034,105.741 49.417 C 107.355 52.171,107.747 56.770,106.648 60.066 C 106.204 61.397,105.247 63.393,104.923 63.662 C 104.782 63.779,104.667 63.936,104.667 64.012 C 104.667 64.592,101.915 67.517,101.066 67.840 C 100.846 67.923,100.667 68.063,100.667 68.150 C 100.667 68.238,100.460 68.420,100.208 68.555 C 99.956 68.690,99.381 68.996,98.929 69.234 C 98.478 69.472,97.980 69.784,97.822 69.927 C 97.664 70.070,97.095 70.252,96.559 70.331 C 96.022 70.410,95.321 70.574,95.000 70.696 C 94.543 70.869,92.624 70.915,86.167 70.910 L 77.917 70.903 76.295 70.467 C 75.403 70.227,74.554 69.911,74.408 69.765 C 74.263 69.620,73.942 69.453,73.697 69.395 C 73.451 69.337,73.100 69.164,72.917 69.011 C 72.733 68.858,72.249 68.512,71.840 68.242 C 70.220 67.170,68.060 64.714,67.233 63.005 C 66.811 62.131,66.350 61.192,66.209 60.917 C 65.264 59.069,65.295 53.055,66.262 50.812 C 66.485 50.297,66.667 49.720,66.667 49.531 C 66.667 49.341,66.737 49.143,66.824 49.089 C 66.910 49.036,67.295 48.423,67.679 47.728 C 68.382 46.455,70.364 44.285,71.012 44.079 C 71.189 44.023,71.333 43.910,71.333 43.826 C 71.333 43.743,71.540 43.568,71.792 43.437 C 72.044 43.306,72.430 43.041,72.651 42.849 C 72.871 42.657,73.149 42.500,73.269 42.500 C 73.389 42.500,73.624 42.353,73.791 42.174 C 73.958 41.995,74.524 41.736,75.049 41.599 C 75.574 41.462,76.079 41.304,76.172 41.247 C 77.100 40.673,92.390 40.416,94.750 40.934 " stroke="none" fill="#f4b8b5" fill-rule="evenodd" data-index="4"></path></g></svg>