<?xml version="1.0" encoding="UTF-8" standalone="no"?>
<svg
   xmlns:dc="http://purl.org/dc/elements/1.1/"
   xmlns:cc="http://creativecommons.org/ns#"
   xmlns:rdf="http://www.w3.org/1999/02/22-rdf-syntax-ns#"
   xmlns:svg="http://www.w3.org/2000/svg"
   xmlns="http://www.w3.org/2000/svg"
   viewBox="0 0 738.49042 703.33331"
   height="703.33331"
   width="738.49042"
   xml:space="preserve"
   id="svg2"
   version="1.1"><metadata
     id="metadata8"><rdf:RDF><cc:Work
         rdf:about=""><dc:format>image/svg+xml</dc:format><dc:type
           rdf:resource="http://purl.org/dc/dcmitype/StillImage" /></cc:Work></rdf:RDF></metadata><defs
     id="defs6"><clipPath
       id="clipPath20"
       clipPathUnits="userSpaceOnUse"><path
         id="path18"
         d="M 36,191.8984 H 263.2012 V 335.6015 H 36 Z" /></clipPath><clipPath
       id="clipPath30"
       clipPathUnits="userSpaceOnUse"><path
         id="path28"
         d="M 191.9707,36 H 335.5762 V 491.5 H 191.9707 Z" /></clipPath><clipPath
       id="clipPath40"
       clipPathUnits="userSpaceOnUse"><path
         id="path38"
         d="M 261.047,184.7664 H 434.2179 V 342.7337 H 261.047 Z" /></clipPath><clipPath
       id="clipPath50"
       clipPathUnits="userSpaceOnUse"><path
         id="path48"
         d="M 290.6666,201.614 H 517.8678 V 325.8861 H 290.6666 Z" /></clipPath></defs><g
     transform="matrix(1.3333333,0,0,-1.3333333,0,703.33333)"
     id="g10"><g
       id="g12" /><g
       id="g14"><g
         clip-path="url(#clipPath20)"
         id="g16"><path
           id="path22"
           style="fill:#eb4f55;fill-opacity:1;fill-rule:nonzero;stroke:none"
           d="m 145.3083,334.6016 h 8.5846 c 30.8447,0 49.3515,0 61.6894,-4.2729 19.6802,-7.163 35.183,-22.6659 42.346,-42.346 2.8268,-7.7665 4.2729,-15.9678 4.2729,-24.2327 0,-8.2649 -1.4461,-16.4662 -4.2729,-24.2327 -7.163,-19.6801 -22.6658,-35.183 -42.346,-42.346 -12.3379,-4.2729 -30.8447,-4.2729 -61.6894,-4.2729 h -8.5846 c -30.8447,0 -49.35152,0 -61.6894,4.2729 -19.68019,7.163 -35.18303,22.6659 -42.34603,42.346 C 38.44609,247.2838 37,255.4851 37,263.75 c 0,8.2649 1.44609,16.4662 4.27287,24.2327 7.163,19.6801 22.66584,35.183 42.34603,42.346 12.33788,4.2729 30.8447,4.2729 61.6894,4.2729 z" /></g></g><g
       id="g24"><g
         clip-path="url(#clipPath30)"
         id="g26"><path
           id="path32"
           style="fill:#eb4f55;fill-opacity:1;fill-rule:nonzero;stroke:none"
           d="m 263.7734,490.5 c 8.2593,0 16.4548,-1.4451 24.216,-4.2699 19.6666,-7.1581 35.1588,-22.6502 42.3168,-42.3169 4.27,-12.3294 4.27,-30.8234 4.27,-61.6469 V 145.2337 c 0,-30.8235 0,-49.31755 -4.27,-61.64693 C 323.1482,63.92015 307.656,48.42799 287.9894,41.26993 280.2282,38.4451 272.0327,37 263.7734,37 c -8.2592,0 -16.4548,1.4451 -24.2159,4.26993 -19.6666,7.15806 -35.1588,22.65022 -42.3169,42.31684 -4.2699,12.32938 -4.2699,30.82343 -4.2699,61.64693 v 237.0326 c 0,30.8235 0,49.3175 4.2699,61.6469 7.1581,19.6667 22.6503,35.1588 42.3169,42.3169 7.7611,2.8248 15.9567,4.2699 24.2159,4.2699 z" /></g></g><g
       id="g34"><g
         clip-path="url(#clipPath40)"
         id="g36"><path
           id="path42"
           style="fill:#ffffff;fill-opacity:1;fill-rule:nonzero;stroke:none"
           d="m 347.6324,341.7336 c 12.7481,0 31.5187,-0.9967 39.3239,-4.4698 19.4226,-7.0693 34.7225,-22.3692 41.7917,-41.7917 3.1396,-7.4958 4.4699,-22.0108 4.4699,-31.7221 0,-9.7113 -1.3303,-24.2263 -4.4699,-31.7221 -7.0692,-19.4225 -22.3691,-34.7224 -41.7917,-41.7917 -7.8052,-3.4731 -26.5758,-4.4698 -39.3239,-4.4698 -12.748,0 -31.5187,0.9967 -39.3238,4.4698 -19.4226,7.0693 -34.7225,22.3692 -41.7917,41.7917 -3.1397,7.4958 -4.4699,22.0108 -4.4699,31.7221 0,9.7113 1.3302,24.2263 4.4699,31.7221 7.0692,19.4225 22.3691,34.7224 41.7917,41.7917 7.8051,3.4731 26.5758,4.4698 39.3238,4.4698 z" /></g></g><g
       id="g44"><g
         clip-path="url(#clipPath50)"
         id="g46"><path
           id="path52"
           style="fill:#ff9995;fill-opacity:1;fill-rule:nonzero;stroke:none"
           d="m 385.1231,324.886 h 38.2882 c 26.6151,0 42.5841,0 53.2302,-3.6869 16.9815,-6.1808 30.3585,-19.5578 36.5393,-36.5394 2.4392,-6.7015 3.687,-13.7781 3.687,-20.9097 0,-7.1316 -1.2478,-14.2082 -3.687,-20.9098 C 507,225.8587 493.623,212.4817 476.6415,206.3009 465.9954,202.614 450.0264,202.614 423.4113,202.614 h -38.2882 c -26.6151,0 -42.5842,0 -53.2303,3.6869 -16.9815,6.1808 -30.3585,19.5578 -36.5393,36.5393 -2.4391,6.7016 -3.6869,13.7782 -3.6869,20.9098 0,7.1316 1.2478,14.2082 3.6869,20.9097 6.1808,16.9816 19.5578,30.3586 36.5393,36.5394 10.6461,3.6869 26.6152,3.6869 53.2303,3.6869 z" /></g></g></g></svg>