<svg id="visual" viewBox="0 0 960 540" width="960" height="540" xmlns="http://www.w3.org/2000/svg" xmlns:xlink="http://www.w3.org/1999/xlink" version="1.1"><rect x="0" y="0" width="960" height="540" fill="#001220"></rect><defs><linearGradient id="grad1_0" x1="43.8%" y1="100%" x2="100%" y2="0%"><stop offset="14.444444444444446%" stop-color="#fbae3c" stop-opacity="1"></stop><stop offset="85.55555555555554%" stop-color="#fbae3c" stop-opacity="1"></stop></linearGradient></defs><defs><linearGradient id="grad1_1" x1="43.8%" y1="100%" x2="100%" y2="0%"><stop offset="14.444444444444446%" stop-color="#fbae3c" stop-opacity="1"></stop><stop offset="85.55555555555554%" stop-color="#f48350" stop-opacity="1"></stop></linearGradient></defs><defs><linearGradient id="grad1_2" x1="43.8%" y1="100%" x2="100%" y2="0%"><stop offset="14.444444444444446%" stop-color="#d96162" stop-opacity="1"></stop><stop offset="85.55555555555554%" stop-color="#f48350" stop-opacity="1"></stop></linearGradient></defs><defs><linearGradient id="grad1_3" x1="43.8%" y1="100%" x2="100%" y2="0%"><stop offset="14.444444444444446%" stop-color="#d96162" stop-opacity="1"></stop><stop offset="85.55555555555554%" stop-color="#af4b6d" stop-opacity="1"></stop></linearGradient></defs><defs><linearGradient id="grad1_4" x1="43.8%" y1="100%" x2="100%" y2="0%"><stop offset="14.444444444444446%" stop-color="#7c3e6b" stop-opacity="1"></stop><stop offset="85.55555555555554%" stop-color="#af4b6d" stop-opacity="1"></stop></linearGradient></defs><defs><linearGradient id="grad1_5" x1="43.8%" y1="100%" x2="100%" y2="0%"><stop offset="14.444444444444446%" stop-color="#7c3e6b" stop-opacity="1"></stop><stop offset="85.55555555555554%" stop-color="#49335c" stop-opacity="1"></stop></linearGradient></defs><defs><linearGradient id="grad1_6" x1="43.8%" y1="100%" x2="100%" y2="0%"><stop offset="14.444444444444446%" stop-color="#1d2540" stop-opacity="1"></stop><stop offset="85.55555555555554%" stop-color="#49335c" stop-opacity="1"></stop></linearGradient></defs><defs><linearGradient id="grad1_7" x1="43.8%" y1="100%" x2="100%" y2="0%"><stop offset="14.444444444444446%" stop-color="#1d2540" stop-opacity="1"></stop><stop offset="85.55555555555554%" stop-color="#001220" stop-opacity="1"></stop></linearGradient></defs><defs><linearGradient id="grad2_0" x1="0%" y1="100%" x2="56.3%" y2="0%"><stop offset="14.444444444444446%" stop-color="#fbae3c" stop-opacity="1"></stop><stop offset="85.55555555555554%" stop-color="#fbae3c" stop-opacity="1"></stop></linearGradient></defs><defs><linearGradient id="grad2_1" x1="0%" y1="100%" x2="56.3%" y2="0%"><stop offset="14.444444444444446%" stop-color="#f48350" stop-opacity="1"></stop><stop offset="85.55555555555554%" stop-color="#fbae3c" stop-opacity="1"></stop></linearGradient></defs><defs><linearGradient id="grad2_2" x1="0%" y1="100%" x2="56.3%" y2="0%"><stop offset="14.444444444444446%" stop-color="#f48350" stop-opacity="1"></stop><stop offset="85.55555555555554%" stop-color="#d96162" stop-opacity="1"></stop></linearGradient></defs><defs><linearGradient id="grad2_3" x1="0%" y1="100%" x2="56.3%" y2="0%"><stop offset="14.444444444444446%" stop-color="#af4b6d" stop-opacity="1"></stop><stop offset="85.55555555555554%" stop-color="#d96162" stop-opacity="1"></stop></linearGradient></defs><defs><linearGradient id="grad2_4" x1="0%" y1="100%" x2="56.3%" y2="0%"><stop offset="14.444444444444446%" stop-color="#af4b6d" stop-opacity="1"></stop><stop offset="85.55555555555554%" stop-color="#7c3e6b" stop-opacity="1"></stop></linearGradient></defs><defs><linearGradient id="grad2_5" x1="0%" y1="100%" x2="56.3%" y2="0%"><stop offset="14.444444444444446%" stop-color="#49335c" stop-opacity="1"></stop><stop offset="85.55555555555554%" stop-color="#7c3e6b" stop-opacity="1"></stop></linearGradient></defs><defs><linearGradient id="grad2_6" x1="0%" y1="100%" x2="56.3%" y2="0%"><stop offset="14.444444444444446%" stop-color="#49335c" stop-opacity="1"></stop><stop offset="85.55555555555554%" stop-color="#1d2540" stop-opacity="1"></stop></linearGradient></defs><defs><linearGradient id="grad2_7" x1="0%" y1="100%" x2="56.3%" y2="0%"><stop offset="14.444444444444446%" stop-color="#001220" stop-opacity="1"></stop><stop offset="85.55555555555554%" stop-color="#1d2540" stop-opacity="1"></stop></linearGradient></defs><g transform="translate(960, 540)"><path d="M-350 0C-423.7 -105.8 -497.4 -211.6 -467.7 -270C-437.9 -328.4 -304.7 -339.4 -209.5 -362.9C-114.3 -386.3 -57.2 -422.2 0 -458L0 0Z" fill="#0c1c30"></path><path d="M-306.2 0C-370.7 -92.6 -435.2 -185.1 -409.2 -236.3C-383.2 -287.4 -266.6 -297 -183.3 -317.5C-100 -338 -50 -369.4 0 -400.7L0 0Z" fill="#312c4f"></path><path d="M-262.5 0C-317.8 -79.3 -373.1 -158.7 -350.7 -202.5C-328.4 -246.3 -228.5 -254.6 -157.1 -272.1C-85.7 -289.7 -42.9 -316.6 0 -343.5L0 0Z" fill="#623965"></path><path d="M-218.7 0C-264.8 -66.1 -310.9 -132.2 -292.3 -168.8C-273.7 -205.3 -190.4 -212.1 -130.9 -226.8C-71.4 -241.4 -35.7 -263.8 0 -286.2L0 0Z" fill="#96446e"></path><path d="M-175 0C-211.9 -52.9 -248.7 -105.8 -233.8 -135C-218.9 -164.2 -152.3 -169.7 -104.8 -181.4C-57.2 -193.2 -28.6 -211.1 0 -229L0 0Z" fill="#c55469"></path><path d="M-131.2 0C-158.9 -39.7 -186.5 -79.3 -175.4 -101.3C-164.2 -123.2 -114.3 -127.3 -78.6 -136.1C-42.9 -144.9 -21.4 -158.3 0 -171.7L0 0Z" fill="#e9705a"></path><path d="M-87.5 0C-105.9 -26.4 -124.4 -52.9 -116.9 -67.5C-109.5 -82.1 -76.2 -84.9 -52.4 -90.7C-28.6 -96.6 -14.3 -105.5 0 -114.5L0 0Z" fill="#fa9845"></path><path d="M-43.7 0C-53 -13.2 -62.2 -26.4 -58.5 -33.8C-54.7 -41.1 -38.1 -42.4 -26.2 -45.4C-14.3 -48.3 -7.1 -52.8 0 -57.2L0 0Z" fill="#fbae3c"></path></g><g transform="translate(0, 0)"><path d="M335 0C331.7 44.2 328.4 88.4 326.5 188.5C324.6 288.6 324.2 444.7 270 467.7C215.8 490.6 107.9 380.3 0 270L0 0Z" fill="#0c1c30"></path><path d="M293.1 0C290.2 38.7 287.3 77.3 285.7 164.9C284 252.6 283.7 389.2 236.3 409.2C188.8 429.2 94.4 332.7 0 236.3L0 0Z" fill="#312c4f"></path><path d="M251.3 0C248.8 33.1 246.3 66.3 244.9 141.4C243.5 216.5 243.1 333.6 202.5 350.7C161.9 367.9 80.9 285.2 0 202.5L0 0Z" fill="#623965"></path><path d="M209.4 0C207.3 27.6 205.2 55.2 204.1 117.8C202.9 180.4 202.6 278 168.8 292.3C134.9 306.6 67.4 237.7 0 168.8L0 0Z" fill="#96446e"></path><path d="M167.5 0C165.8 22.1 164.2 44.2 163.2 94.2C162.3 144.3 162.1 222.4 135 233.8C107.9 245.3 54 190.1 0 135L0 0Z" fill="#c55469"></path><path d="M125.6 0C124.4 16.6 123.1 33.1 122.4 70.7C121.7 108.2 121.6 166.8 101.3 175.4C80.9 184 40.5 142.6 0 101.3L0 0Z" fill="#e9705a"></path><path d="M83.8 0C82.9 11 82.1 22.1 81.6 47.1C81.2 72.2 81 111.2 67.5 116.9C54 122.6 27 95.1 0 67.5L0 0Z" fill="#fa9845"></path><path d="M41.9 0C41.5 5.5 41 11 40.8 23.6C40.6 36.1 40.5 55.6 33.8 58.5C27 61.3 13.5 47.5 0 33.8L0 0Z" fill="#fbae3c"></path></g></svg>